<svg xmlns="http://www.w3.org/2000/svg" xmlns:xlink="http://www.w3.org/1999/xlink" contentStyleType="text/css" height="1847px" preserveAspectRatio="none" style="width:1348px;height:1847px;background:#FAFAFA;" version="1.1" viewBox="0 0 1348 1847" width="1348px" zoomAndPan="magnify"><title>/pipeline_sync &#8212; Message Flow</title><defs/><g><rect fill="#FAFAFA" height="1847" style="stroke:none;stroke-width:1.0;" width="1348" x="0" y="0"/><text fill="#000000" font-family="Menlo" font-size="14" font-weight="bold" lengthAdjust="spacing" textLength="245.8271" x="547.5187" y="27.9951">/pipeline_sync &#8212; Message Flow</text><line style="stroke:#94A3B8;stroke-width:0.5;stroke-dasharray:5.0,5.0;" x1="85" x2="85" y1="74.7578" y2="1811.4453"/><line style="stroke:#94A3B8;stroke-width:0.5;stroke-dasharray:5.0,5.0;" x1="512.3049" x2="512.3049" y1="74.7578" y2="1811.4453"/><line style="stroke:#94A3B8;stroke-width:0.5;stroke-dasharray:5.0,5.0;" x1="1053.333" x2="1053.333" y1="74.7578" y2="1811.4453"/><line style="stroke:#94A3B8;stroke-width:0.5;stroke-dasharray:5.0,5.0;" x1="1234.5825" x2="1234.5825" y1="74.7578" y2="1811.4453"/><rect fill="#F1F5F9" height="31.4609" rx="2.5" ry="2.5" style="stroke:#475569;stroke-width:0.5;" width="63.314" x="54" y="42.2969"/><text fill="#000000" font-family="Menlo" font-size="15" font-weight="bold" lengthAdjust="spacing" textLength="49.314" x="61" y="63.2202">Client</text><rect fill="#F1F5F9" height="31.4609" rx="2.5" ry="2.5" style="stroke:#475569;stroke-width:0.5;" width="63.314" x="54" y="1810.4453"/><text fill="#000000" font-family="Menlo" font-size="15" font-weight="bold" lengthAdjust="spacing" textLength="49.314" x="61" y="1831.3687">Client</text><rect fill="#F1F5F9" height="31.4609" rx="2.5" ry="2.5" style="stroke:#475569;stroke-width:0.5;" width="71.6563" x="477.3049" y="42.2969"/><text fill="#000000" font-family="Menlo" font-size="15" font-weight="bold" lengthAdjust="spacing" textLength="57.6563" x="484.3049" y="63.2202">Engine</text><rect fill="#F1F5F9" height="31.4609" rx="2.5" ry="2.5" style="stroke:#475569;stroke-width:0.5;" width="71.6563" x="477.3049" y="1810.4453"/><text fill="#000000" font-family="Menlo" font-size="15" font-weight="bold" lengthAdjust="spacing" textLength="57.6563" x="484.3049" y="1831.3687">Engine</text><rect fill="#F1F5F9" height="31.4609" rx="2.5" ry="2.5" style="stroke:#475569;stroke-width:0.5;" width="72.2495" x="1017.333" y="42.2969"/><text fill="#000000" font-family="Menlo" font-size="15" font-weight="bold" lengthAdjust="spacing" textLength="58.2495" x="1024.333" y="63.2202">Source</text><rect fill="#F1F5F9" height="31.4609" rx="2.5" ry="2.5" style="stroke:#475569;stroke-width:0.5;" width="72.2495" x="1017.333" y="1810.4453"/><text fill="#000000" font-family="Menlo" font-size="15" font-weight="bold" lengthAdjust="spacing" textLength="58.2495" x="1024.333" y="1831.3687">Source</text><rect fill="#F1F5F9" height="31.4609" rx="2.5" ry="2.5" style="stroke:#475569;stroke-width:0.5;" width="111.9614" x="1179.5825" y="42.2969"/><text fill="#000000" font-family="Menlo" font-size="15" font-weight="bold" lengthAdjust="spacing" textLength="97.9614" x="1186.5825" y="63.2202">Destination</text><rect fill="#F1F5F9" height="31.4609" rx="2.5" ry="2.5" style="stroke:#475569;stroke-width:0.5;" width="111.9614" x="1179.5825" y="1810.4453"/><text fill="#000000" font-family="Menlo" font-size="15" font-weight="bold" lengthAdjust="spacing" textLength="97.9614" x="1186.5825" y="1831.3687">Destination</text><polygon fill="#475569" points="501.1331,117.0234,511.1331,121.0234,501.1331,125.0234,505.1331,121.0234" style="stroke:#475569;stroke-width:1.0;"/><line style="stroke:#475569;stroke-width:2.0;" x1="85.657" x2="507.1331" y1="121.0234" y2="121.0234"/><text fill="#000000" font-family="Menlo" font-size="13" lengthAdjust="spacing" textLength="130.7046" x="92.657" y="100.8247">POST /pipeline_sync</text><text fill="#000000" font-family="Menlo" font-size="13" lengthAdjust="spacing" textLength="332.7505" x="92.657" y="115.9575">{pipeline_config, state?, source_input_messages?}</text><path d="M90,134.0234 L90,189.0234 L479,189.0234 L479,144.0234 L469,134.0234 L90,134.0234 " fill="#FEFFDD" style="stroke:#181818;stroke-width:0.5;"/><path d="M469,134.0234 L469,144.0234 L479,144.0234 L469,134.0234 " fill="#FEFFDD" style="stroke:#181818;stroke-width:0.5;"/><text fill="#000000" font-family="Menlo" font-size="13" lengthAdjust="spacing" textLength="318.9951" x="96" y="151.0903">pipeline_config = {source, destination, streams}</text><text fill="#000000" font-family="Menlo" font-size="13" lengthAdjust="spacing" textLength="245.7939" x="96" y="166.2231">state = {source, destination, engine}</text><text fill="#000000" font-family="Menlo" font-size="13" lengthAdjust="spacing" textLength="368.4561" x="96" y="181.356">source_input_messages = Stripe.Event[] from webhooks</text><rect fill="#F8FAFC" height="3" style="stroke:#F8FAFC;stroke-width:1.0;" width="1341.8645" x="0" y="214.4063"/><line style="stroke:#CBD5E1;stroke-width:1.0;" x1="0" x2="1341.8645" y1="214.4063" y2="214.4063"/><line style="stroke:#CBD5E1;stroke-width:1.0;" x1="0" x2="1341.8645" y1="217.4063" y2="217.4063"/><rect fill="#F8FAFC" height="21.9688" style="stroke:#CBD5E1;stroke-width:2.0;" width="146.6328" x="597.6158" y="204.4219"/><text fill="#000000" font-family="Menlo" font-size="12" font-style="italic" lengthAdjust="spacing" textLength="128.8184" x="603.6158" y="219.5605">Engine builds catalog</text><polygon fill="#475569" points="1041.4578,253.5234,1051.4578,257.5234,1041.4578,261.5234,1045.4578,257.5234" style="stroke:#475569;stroke-width:1.0;"/><line style="stroke:#475569;stroke-width:2.0;" x1="513.1331" x2="1047.4578" y1="257.5234" y2="257.5234"/><text fill="#000000" font-family="Menlo" font-size="13" lengthAdjust="spacing" textLength="154.6543" x="520.1331" y="252.4575">discover(source_config)</text><polygon fill="#475569" points="524.1331,282.6563,514.1331,286.6563,524.1331,290.6563,520.1331,286.6563" style="stroke:#475569;stroke-width:1.0;"/><line style="stroke:#475569;stroke-width:2.0;" x1="518.1331" x2="1052.4578" y1="286.6563" y2="286.6563"/><text fill="#000000" font-family="Menlo" font-size="13" lengthAdjust="spacing" textLength="192.1436" x="530.1331" y="281.5903">available streams + schemas</text><line style="stroke:#475569;stroke-width:2.0;" x1="513.1331" x2="555.1331" y1="330.9219" y2="330.9219"/><line style="stroke:#475569;stroke-width:2.0;" x1="555.1331" x2="555.1331" y1="330.9219" y2="343.9219"/><line style="stroke:#475569;stroke-width:2.0;" x1="514.1331" x2="555.1331" y1="343.9219" y2="343.9219"/><polygon fill="#475569" points="524.1331,339.9219,514.1331,343.9219,524.1331,347.9219,520.1331,343.9219" style="stroke:#475569;stroke-width:1.0;"/><text fill="#000000" font-family="Menlo" font-size="13" lengthAdjust="spacing" textLength="160.2085" x="520.1331" y="310.7231">build configured_catalog</text><text fill="#000000" font-family="Menlo" font-size="13" lengthAdjust="spacing" textLength="286.8379" x="520.1331" y="325.856">(merge discover result + streams selection)</text><polygon fill="#16A34A" points="96.657,369.0547,86.657,373.0547,96.657,377.0547,92.657,373.0547" style="stroke:#16A34A;stroke-width:1.0;"/><line style="stroke:#16A34A;stroke-width:2.0;" x1="90.657" x2="512.1331" y1="373.0547" y2="373.0547"/><text fill="#000000" font-family="Menlo" font-size="13" lengthAdjust="spacing" textLength="403.4761" x="102.657" y="367.9888">progress {streams: {customers: {status: "not_started", ...}}}</text><path d="M518,386.0547 L518,426.0547 L765,426.0547 L765,396.0547 L755,386.0547 L518,386.0547 " fill="#FEFFDD" style="stroke:#181818;stroke-width:0.5;"/><path d="M755,386.0547 L755,396.0547 L765,396.0547 L755,386.0547 " fill="#FEFFDD" style="stroke:#181818;stroke-width:0.5;"/><text fill="#000000" font-family="Menlo" font-size="13" lengthAdjust="spacing" textLength="226.3765" x="524" y="403.1216">first progress emitted immediately</text><text fill="#000000" font-family="Menlo" font-size="13" lengthAdjust="spacing" textLength="193.3242" x="524" y="418.2544">before source sends any data</text><rect fill="#F8FAFC" height="3" style="stroke:#F8FAFC;stroke-width:1.0;" width="1341.8645" x="0" y="451.3047"/><line style="stroke:#CBD5E1;stroke-width:1.0;" x1="0" x2="1341.8645" y1="451.3047" y2="451.3047"/><line style="stroke:#CBD5E1;stroke-width:1.0;" x1="0" x2="1341.8645" y1="454.3047" y2="454.3047"/><rect fill="#F8FAFC" height="21.9688" style="stroke:#CBD5E1;stroke-width:2.0;" width="176.9023" x="582.4811" y="441.3203"/><text fill="#000000" font-family="Menlo" font-size="12" font-style="italic" lengthAdjust="spacing" textLength="159.0879" x="588.4811" y="456.459">Source &amp; Destination start</text><polygon fill="#475569" points="1041.4578,490.4219,1051.4578,494.4219,1041.4578,498.4219,1045.4578,494.4219" style="stroke:#475569;stroke-width:1.0;"/><line style="stroke:#475569;stroke-width:2.0;" x1="513.1331" x2="1047.4578" y1="494.4219" y2="494.4219"/><text fill="#000000" font-family="Menlo" font-size="13" lengthAdjust="spacing" textLength="516.3247" x="520.1331" y="489.356">read(source_config, configured_catalog, source_state, source_input_messages)</text><polygon fill="#475569" points="1223.5632,519.5547,1233.5632,523.5547,1223.5632,527.5547,1227.5632,523.5547" style="stroke:#475569;stroke-width:1.0;"/><line style="stroke:#475569;stroke-width:2.0;" x1="513.1331" x2="1229.5632" y1="523.5547" y2="523.5547"/><text fill="#000000" font-family="Menlo" font-size="13" lengthAdjust="spacing" textLength="325.4189" x="520.1331" y="518.4888">write(dest_config, configured_catalog, dest_state)</text><rect fill="#F8FAFC" height="3" style="stroke:#F8FAFC;stroke-width:1.0;" width="1341.8645" x="0" y="551.5391"/><line style="stroke:#CBD5E1;stroke-width:1.0;" x1="0" x2="1341.8645" y1="551.5391" y2="551.5391"/><line style="stroke:#CBD5E1;stroke-width:1.0;" x1="0" x2="1341.8645" y1="554.5391" y2="554.5391"/><rect fill="#F8FAFC" height="21.9688" style="stroke:#CBD5E1;stroke-width:2.0;" width="270.8281" x="535.5182" y="541.5547"/><text fill="#000000" font-family="Menlo" font-size="12" font-style="italic" lengthAdjust="spacing" textLength="253.0137" x="541.5182" y="556.6934">Source &amp; Destination stream concurrently</text><polygon fill="#94A3B8" points="524.1331,590.6563,514.1331,594.6563,524.1331,598.6563,520.1331,594.6563" style="stroke:#94A3B8;stroke-width:1.0;"/><line style="stroke:#94A3B8;stroke-width:2.0;" x1="518.1331" x2="1052.4578" y1="594.6563" y2="594.6563"/><text fill="#000000" font-family="Menlo" font-size="13" lengthAdjust="spacing" textLength="346.2266" x="530.1331" y="589.5903">stream_status {stream: "customers", status: "start"}</text><polygon fill="#2563EB" points="524.1331,619.7891,514.1331,623.7891,524.1331,627.7891,520.1331,623.7891" style="stroke:#2563EB;stroke-width:1.0;"/><line style="stroke:#2563EB;stroke-width:2.0;" x1="518.1331" x2="1052.4578" y1="623.7891" y2="623.7891"/><text fill="#000000" font-family="Menlo" font-size="13" lengthAdjust="spacing" textLength="272.0161" x="530.1331" y="618.7231">record {stream: "customers", data: {...}}</text><polygon fill="#2563EB" points="1223.5632,648.9219,1233.5632,652.9219,1223.5632,656.9219,1227.5632,652.9219" style="stroke:#2563EB;stroke-width:1.0;"/><line style="stroke:#2563EB;stroke-width:2.0;" x1="513.1331" x2="1229.5632" y1="652.9219" y2="652.9219"/><text fill="#000000" font-family="Menlo" font-size="13" lengthAdjust="spacing" textLength="122.6367" x="520.1331" y="647.856">record (forwarded)</text><polygon fill="#2563EB" points="524.1331,678.0547,514.1331,682.0547,524.1331,686.0547,520.1331,682.0547" style="stroke:#2563EB;stroke-width:1.0;"/><line style="stroke:#2563EB;stroke-width:2.0;" x1="518.1331" x2="1052.4578" y1="682.0547" y2="682.0547"/><text fill="#000000" font-family="Menlo" font-size="13" lengthAdjust="spacing" textLength="272.0161" x="530.1331" y="676.9888">record {stream: "customers", data: {...}}</text><polygon fill="#2563EB" points="1223.5632,707.1875,1233.5632,711.1875,1223.5632,715.1875,1227.5632,711.1875" style="stroke:#2563EB;stroke-width:1.0;"/><line style="stroke:#2563EB;stroke-width:2.0;" x1="513.1331" x2="1229.5632" y1="711.1875" y2="711.1875"/><text fill="#000000" font-family="Menlo" font-size="13" lengthAdjust="spacing" textLength="122.6367" x="520.1331" y="706.1216">record (forwarded)</text><polygon fill="#7C3AED" points="524.1331,736.3203,514.1331,740.3203,524.1331,744.3203,520.1331,740.3203" style="stroke:#7C3AED;stroke-width:1.0;"/><line style="stroke:#7C3AED;stroke-width:2.0;" x1="518.1331" x2="1052.4578" y1="740.3203" y2="740.3203"/><text fill="#000000" font-family="Menlo" font-size="13" lengthAdjust="spacing" textLength="397.4458" x="530.1331" y="735.2544">source_state {stream: "customers", data: {remaining: [...]}}</text><polygon fill="#7C3AED" points="1223.5632,765.4531,1233.5632,769.4531,1223.5632,773.4531,1227.5632,769.4531" style="stroke:#7C3AED;stroke-width:1.0;"/><line style="stroke:#7C3AED;stroke-width:2.0;" x1="513.1331" x2="1229.5632" y1="769.4531" y2="769.4531"/><text fill="#000000" font-family="Menlo" font-size="13" lengthAdjust="spacing" textLength="163.4839" x="520.1331" y="764.3872">source_state (forwarded)</text><polygon fill="#94A3B8" points="524.1331,794.5859,514.1331,798.5859,524.1331,802.5859,520.1331,798.5859" style="stroke:#94A3B8;stroke-width:1.0;"/><line style="stroke:#94A3B8;stroke-width:2.0;" x1="518.1331" x2="1052.4578" y1="798.5859" y2="798.5859"/><text fill="#000000" font-family="Menlo" font-size="13" lengthAdjust="spacing" textLength="420.9702" x="530.1331" y="793.52">stream_status {stream: "customers", status: "range_complete"}</text><polygon fill="#94A3B8" points="1223.5632,823.7188,1233.5632,827.7188,1223.5632,831.7188,1227.5632,827.7188" style="stroke:#94A3B8;stroke-width:1.0;"/><line style="stroke:#94A3B8;stroke-width:2.0;" x1="513.1331" x2="1229.5632" y1="827.7188" y2="827.7188"/><text fill="#000000" font-family="Menlo" font-size="13" lengthAdjust="spacing" textLength="172.8848" x="520.1331" y="822.6528">stream_status (forwarded)</text><polygon fill="#2563EB" points="524.1331,852.8516,514.1331,856.8516,524.1331,860.8516,520.1331,856.8516" style="stroke:#2563EB;stroke-width:1.0;"/><line style="stroke:#2563EB;stroke-width:2.0;" x1="518.1331" x2="1052.4578" y1="856.8516" y2="856.8516"/><text fill="#000000" font-family="Menlo" font-size="13" lengthAdjust="spacing" textLength="272.0161" x="530.1331" y="851.7856">record {stream: "customers", data: {...}}</text><polygon fill="#2563EB" points="1223.5632,881.9844,1233.5632,885.9844,1223.5632,889.9844,1227.5632,885.9844" style="stroke:#2563EB;stroke-width:1.0;"/><line style="stroke:#2563EB;stroke-width:2.0;" x1="513.1331" x2="1229.5632" y1="885.9844" y2="885.9844"/><text fill="#000000" font-family="Menlo" font-size="13" lengthAdjust="spacing" textLength="122.6367" x="520.1331" y="880.9185">record (forwarded)</text><polygon fill="#7C3AED" points="524.1331,911.1172,514.1331,915.1172,524.1331,919.1172,520.1331,915.1172" style="stroke:#7C3AED;stroke-width:1.0;"/><line style="stroke:#7C3AED;stroke-width:2.0;" x1="518.1331" x2="1052.4578" y1="915.1172" y2="915.1172"/><text fill="#000000" font-family="Menlo" font-size="13" lengthAdjust="spacing" textLength="385.0488" x="530.1331" y="910.0513">source_state {stream: "customers", data: {remaining: []}}</text><polygon fill="#7C3AED" points="1223.5632,940.25,1233.5632,944.25,1223.5632,948.25,1227.5632,944.25" style="stroke:#7C3AED;stroke-width:1.0;"/><line style="stroke:#7C3AED;stroke-width:2.0;" x1="513.1331" x2="1229.5632" y1="944.25" y2="944.25"/><text fill="#000000" font-family="Menlo" font-size="13" lengthAdjust="spacing" textLength="163.4839" x="520.1331" y="939.1841">source_state (forwarded)</text><polygon fill="#94A3B8" points="524.1331,969.3828,514.1331,973.3828,524.1331,977.3828,520.1331,973.3828" style="stroke:#94A3B8;stroke-width:1.0;"/><line style="stroke:#94A3B8;stroke-width:2.0;" x1="518.1331" x2="1052.4578" y1="973.3828" y2="973.3828"/><text fill="#000000" font-family="Menlo" font-size="13" lengthAdjust="spacing" textLength="376.6699" x="530.1331" y="968.3169">stream_status {stream: "customers", status: "complete"}</text><polygon fill="#94A3B8" points="1223.5632,998.5156,1233.5632,1002.5156,1223.5632,1006.5156,1227.5632,1002.5156" style="stroke:#94A3B8;stroke-width:1.0;"/><line style="stroke:#94A3B8;stroke-width:2.0;" x1="513.1331" x2="1229.5632" y1="1002.5156" y2="1002.5156"/><text fill="#000000" font-family="Menlo" font-size="13" lengthAdjust="spacing" textLength="172.8848" x="520.1331" y="997.4497">stream_status (forwarded)</text><rect fill="#F8FAFC" height="3" style="stroke:#F8FAFC;stroke-width:1.0;" width="1341.8645" x="0" y="1030.5"/><line style="stroke:#CBD5E1;stroke-width:1.0;" x1="0" x2="1341.8645" y1="1030.5" y2="1030.5"/><line style="stroke:#CBD5E1;stroke-width:1.0;" x1="0" x2="1341.8645" y1="1033.5" y2="1033.5"/><rect fill="#F8FAFC" height="21.9688" style="stroke:#CBD5E1;stroke-width:2.0;" width="204.2129" x="568.8258" y="1020.5156"/><text fill="#000000" font-family="Menlo" font-size="12" font-style="italic" lengthAdjust="spacing" textLength="186.3984" x="574.8258" y="1035.6543">Destination persists &amp; re-emits</text><line style="stroke:#16A34A;stroke-width:2.0;" x1="1235.5632" x2="1277.5632" y1="1073.6172" y2="1073.6172"/><line style="stroke:#16A34A;stroke-width:2.0;" x1="1277.5632" x2="1277.5632" y1="1073.6172" y2="1086.6172"/><line style="stroke:#16A34A;stroke-width:2.0;" x1="1236.5632" x2="1277.5632" y1="1086.6172" y2="1086.6172"/><polygon fill="#16A34A" points="1246.5632,1082.6172,1236.5632,1086.6172,1246.5632,1090.6172,1242.5632,1086.6172" style="stroke:#16A34A;stroke-width:1.0;"/><text fill="#000000" font-family="Menlo" font-size="13" lengthAdjust="spacing" textLength="92.3013" x="1242.5632" y="1068.5513">upsert + flush</text><polygon fill="#7C3AED" points="524.1331,1111.75,514.1331,1115.75,524.1331,1119.75,520.1331,1115.75" style="stroke:#7C3AED;stroke-width:1.0;"/><line style="stroke:#7C3AED;stroke-width:2.0;" x1="518.1331" x2="1234.5632" y1="1115.75" y2="1115.75"/><text fill="#000000" font-family="Menlo" font-size="13" lengthAdjust="spacing" textLength="249.0122" x="530.1331" y="1110.6841">source_state (re-emitted after persist)</text><polygon fill="#94A3B8" points="524.1331,1140.8828,514.1331,1144.8828,524.1331,1148.8828,520.1331,1144.8828" style="stroke:#94A3B8;stroke-width:1.0;"/><line style="stroke:#94A3B8;stroke-width:2.0;" x1="518.1331" x2="1234.5632" y1="1144.8828" y2="1144.8828"/><text fill="#000000" font-family="Menlo" font-size="13" lengthAdjust="spacing" textLength="258.4131" x="530.1331" y="1139.8169">stream_status (re-emitted after persist)</text><path d="M518,1157.8828 L518,1197.8828 L762,1197.8828 L762,1167.8828 L752,1157.8828 L518,1157.8828 " fill="#FEFFDD" style="stroke:#181818;stroke-width:0.5;"/><path d="M752,1157.8828 L752,1167.8828 L762,1167.8828 L752,1157.8828 " fill="#FEFFDD" style="stroke:#181818;stroke-width:0.5;"/><text fill="#000000" font-family="Menlo" font-size="13" lengthAdjust="spacing" textLength="223.8882" x="524" y="1174.9497">durability: state is only committed</text><text fill="#000000" font-family="Menlo" font-size="13" lengthAdjust="spacing" textLength="162.7095" x="524" y="1190.0825">after destination persists</text><polygon fill="#7C3AED" points="96.657,1220.2813,86.657,1224.2813,96.657,1228.2813,92.657,1224.2813" style="stroke:#7C3AED;stroke-width:1.0;"/><line style="stroke:#7C3AED;stroke-width:2.0;" x1="90.657" x2="512.1331" y1="1224.2813" y2="1224.2813"/><text fill="#000000" font-family="Menlo" font-size="13" lengthAdjust="spacing" textLength="243.0454" x="102.657" y="1219.2153">source_state (streamed on response)</text><polygon fill="#94A3B8" points="96.657,1249.4141,86.657,1253.4141,96.657,1257.4141,92.657,1253.4141" style="stroke:#94A3B8;stroke-width:1.0;"/><line style="stroke:#94A3B8;stroke-width:2.0;" x1="90.657" x2="512.1331" y1="1253.4141" y2="1253.4141"/><text fill="#000000" font-family="Menlo" font-size="13" lengthAdjust="spacing" textLength="252.4463" x="102.657" y="1248.3481">stream_status (streamed on response)</text><polygon fill="#16A34A" points="96.657,1278.5469,86.657,1282.5469,96.657,1286.5469,92.657,1282.5469" style="stroke:#16A34A;stroke-width:1.0;"/><line style="stroke:#16A34A;stroke-width:2.0;" x1="90.657" x2="512.1331" y1="1282.5469" y2="1282.5469"/><text fill="#000000" font-family="Menlo" font-size="13" lengthAdjust="spacing" textLength="216.8486" x="102.657" y="1277.481">progress (streamed on response)</text><rect fill="#F8FAFC" height="3" style="stroke:#F8FAFC;stroke-width:1.0;" width="1341.8645" x="0" y="1310.5313"/><line style="stroke:#CBD5E1;stroke-width:1.0;" x1="0" x2="1341.8645" y1="1310.5313" y2="1310.5313"/><line style="stroke:#CBD5E1;stroke-width:1.0;" x1="0" x2="1341.8645" y1="1313.5313" y2="1313.5313"/><rect fill="#F8FAFC" height="21.9688" style="stroke:#CBD5E1;stroke-width:2.0;" width="150.5117" x="595.6764" y="1300.5469"/><text fill="#000000" font-family="Menlo" font-size="12" font-style="italic" lengthAdjust="spacing" textLength="132.6973" x="601.6764" y="1315.6855">Stream error example</text><polygon fill="#DC2626" points="524.1331,1349.6484,514.1331,1353.6484,524.1331,1357.6484,520.1331,1353.6484" style="stroke:#DC2626;stroke-width:1.0;"/><line style="stroke:#DC2626;stroke-width:2.0;" x1="518.1331" x2="1052.4578" y1="1353.6484" y2="1353.6484"/><text fill="#000000" font-family="Menlo" font-size="13" lengthAdjust="spacing" textLength="430.0537" x="530.1331" y="1348.5825">log {level: "error", stream: "invoices", message: "403 forbidden"}</text><polygon fill="#94A3B8" points="524.1331,1378.7813,514.1331,1382.7813,524.1331,1386.7813,520.1331,1382.7813" style="stroke:#94A3B8;stroke-width:1.0;"/><line style="stroke:#94A3B8;stroke-width:2.0;" x1="518.1331" x2="1052.4578" y1="1382.7813" y2="1382.7813"/><text fill="#000000" font-family="Menlo" font-size="13" lengthAdjust="spacing" textLength="332.9727" x="530.1331" y="1377.7153">stream_status {stream: "invoices", status: "error"}</text><polygon fill="#94A3B8" points="1223.5632,1407.9141,1233.5632,1411.9141,1223.5632,1415.9141,1227.5632,1411.9141" style="stroke:#94A3B8;stroke-width:1.0;"/><line style="stroke:#94A3B8;stroke-width:2.0;" x1="513.1331" x2="1229.5632" y1="1411.9141" y2="1411.9141"/><text fill="#000000" font-family="Menlo" font-size="13" lengthAdjust="spacing" textLength="172.8848" x="520.1331" y="1406.8481">stream_status (forwarded)</text><polygon fill="#94A3B8" points="524.1331,1437.0469,514.1331,1441.0469,524.1331,1445.0469,520.1331,1441.0469" style="stroke:#94A3B8;stroke-width:1.0;"/><line style="stroke:#94A3B8;stroke-width:2.0;" x1="518.1331" x2="1234.5632" y1="1441.0469" y2="1441.0469"/><text fill="#000000" font-family="Menlo" font-size="13" lengthAdjust="spacing" textLength="175.3159" x="530.1331" y="1435.981">stream_status (re-emitted)</text><polygon fill="#94A3B8" points="96.657,1466.1797,86.657,1470.1797,96.657,1474.1797,92.657,1470.1797" style="stroke:#94A3B8;stroke-width:1.0;"/><line style="stroke:#94A3B8;stroke-width:2.0;" x1="90.657" x2="512.1331" y1="1470.1797" y2="1470.1797"/><text fill="#000000" font-family="Menlo" font-size="13" lengthAdjust="spacing" textLength="252.4463" x="102.657" y="1465.1138">stream_status (streamed on response)</text><path d="M518,1483.1797 L518,1523.1797 L697,1523.1797 L697,1493.1797 L687,1483.1797 L518,1483.1797 " fill="#FEFFDD" style="stroke:#181818;stroke-width:0.5;"/><path d="M687,1483.1797 L687,1493.1797 L697,1493.1797 L687,1483.1797 " fill="#FEFFDD" style="stroke:#181818;stroke-width:0.5;"/><text fill="#000000" font-family="Menlo" font-size="13" lengthAdjust="spacing" textLength="158.0757" x="524" y="1500.2466">stream "invoices" stops,</text><text fill="#000000" font-family="Menlo" font-size="13" lengthAdjust="spacing" textLength="152.0391" x="524" y="1515.3794">other streams continue</text><rect fill="#F8FAFC" height="3" style="stroke:#F8FAFC;stroke-width:1.0;" width="1341.8645" x="0" y="1548.4297"/><line style="stroke:#CBD5E1;stroke-width:1.0;" x1="0" x2="1341.8645" y1="1548.4297" y2="1548.4297"/><line style="stroke:#CBD5E1;stroke-width:1.0;" x1="0" x2="1341.8645" y1="1551.4297" y2="1551.4297"/><rect fill="#F8FAFC" height="21.9688" style="stroke:#CBD5E1;stroke-width:2.0;" width="303.2773" x="519.2936" y="1538.4453"/><text fill="#000000" font-family="Menlo" font-size="12" font-style="italic" lengthAdjust="spacing" textLength="285.4629" x="525.2936" y="1553.584">EOF &#8212; time limit hit (source iterator NOT done)</text><polygon fill="#16A34A" points="96.657,1587.5469,86.657,1591.5469,96.657,1595.5469,92.657,1591.5469" style="stroke:#16A34A;stroke-width:1.0;"/><line style="stroke:#16A34A;stroke-width:2.0;" x1="90.657" x2="512.1331" y1="1591.5469" y2="1591.5469"/><text fill="#000000" font-family="Menlo" font-size="13" lengthAdjust="spacing" textLength="355.9575" x="102.657" y="1586.481">eof {reason: "time_limit", has_more: true, state: {...}}</text><path d="M5,1604.5469 L5,1674.5469 L1317,1674.5469 L1317,1614.5469 L1307,1604.5469 L5,1604.5469 " fill="#F0FDF4" style="stroke:#181818;stroke-width:0.5;"/><path d="M1307,1604.5469 L1307,1614.5469 L1317,1614.5469 L1307,1604.5469 " fill="#F0FDF4" style="stroke:#181818;stroke-width:0.5;"/><text fill="#000000" font-family="Menlo" font-size="13" lengthAdjust="spacing" textLength="347.3438" x="443.2908" y="1621.6138">has_more: true &#8212; source iterator was not exhausted.</text><text fill="#000000" font-family="Menlo" font-size="13" lengthAdjust="spacing" textLength="297.6353" x="443.2908" y="1636.7466">Client passes eof.state back as starting state.</text><text fill="#000000" font-family="Menlo" font-size="13" lengthAdjust="spacing" textLength="426.9624" x="443.2908" y="1651.8794">Engine re-injects time_range (lt = time_ceiling from sync_run_id).</text><text fill="#000000" font-family="Menlo" font-size="13" lengthAdjust="spacing" textLength="357.189" x="443.2908" y="1667.0122">Source resumes from its opaque cursor in remaining[].</text><rect fill="#F8FAFC" height="3" style="stroke:#F8FAFC;stroke-width:1.0;" width="1341.8645" x="0" y="1700.0625"/><line style="stroke:#CBD5E1;stroke-width:1.0;" x1="0" x2="1341.8645" y1="1700.0625" y2="1700.0625"/><line style="stroke:#CBD5E1;stroke-width:1.0;" x1="0" x2="1341.8645" y1="1703.0625" y2="1703.0625"/><rect fill="#F8FAFC" height="21.9688" style="stroke:#CBD5E1;stroke-width:2.0;" width="201.1602" x="570.3522" y="1690.0781"/><text fill="#000000" font-family="Menlo" font-size="12" font-style="italic" lengthAdjust="spacing" textLength="183.3457" x="576.3522" y="1705.2168">EOF &#8212; source iterator finished</text><polygon fill="#16A34A" points="96.657,1739.1797,86.657,1743.1797,96.657,1747.1797,92.657,1743.1797" style="stroke:#16A34A;stroke-width:1.0;"/><line style="stroke:#16A34A;stroke-width:2.0;" x1="90.657" x2="512.1331" y1="1743.1797" y2="1743.1797"/><text fill="#000000" font-family="Menlo" font-size="13" lengthAdjust="spacing" textLength="356.459" x="102.657" y="1738.1138">eof {reason: "complete", has_more: false, state: {...}}</text><path d="M5,1756.1797 L5,1796.1797 L1317,1796.1797 L1317,1766.1797 L1307,1756.1797 L5,1756.1797 " fill="#F0FDF4" style="stroke:#181818;stroke-width:0.5;"/><path d="M1307,1756.1797 L1307,1766.1797 L1317,1766.1797 L1307,1756.1797 " fill="#F0FDF4" style="stroke:#181818;stroke-width:0.5;"/><text fill="#000000" font-family="Menlo" font-size="13" lengthAdjust="spacing" textLength="358.5664" x="477.4888" y="1773.2466">has_more: false &#8212; source iterator exhausted naturally.</text><text fill="#000000" font-family="Menlo" font-size="13" lengthAdjust="spacing" textLength="314.4629" x="477.4888" y="1788.3794">All data within the time_range has been synced.</text><!--SRC=[rLVRRXit47tVho1aeB1GH_KzYG4tI2JvAJT0VhCDWLhEIgmfSajohQY6WNv4lx1VqaCkTPUCn0y1QiEGpEMScJbpE9prqYjYlvMo92KrzTrKv-pVl_zXdyWvFYHsfSmaozozr2MtVCm45RnI_ife_vcFYJK-aLQciNr7J_v5xEXawU60v_T3QoejsaOPo_OA7dwNFJZwioAT4tlC67xUMsicroEPtsk4n8xZubTklSnboRN_oeMGUiXE3-EJ3-RRREMeNlae2_g8t3uOAyWcjszF-SdWpUhpNQ6jETpSTrIS5MytjYsxEtrzTdQ-iML1qTdMHtwAsWoC4dKC7VaW0Rdf_mtYp5UsBFlE1-ACZfOVB_mURon7dz9p9VFiASlAHKYihIJXWplMNbdlwY7e2-lTbVMUgMmUrtihwnroNchkfT7XOIVBskpLJUBexdVMPHViwvVUzPeiR_NZ_F_Sw48E3vZptDCxV4PNVKYeylrnBLttxYdJnXEpSZZop1IipVQkkbTNdGwoNeDYb-on1Zc0WEVn1G-M-DWzmIGwsxcH8WjntxPWODVp5avRtGUmU7F72cl6R4A3aJ7tBYCjM8WsooulPumEAgc4Opb7EGn2lCooxWfJFJ0bfClD0zdzvBREfvdrDZZb3rmgFa1zKrBiL-Ro4OsvMyCDkwDpLgDLbaG_XN6hzyTaqHbcZfabX_CUm1Ai8qLvOAMP0ZuwvoUd7C1j09VM36quoezf_mLxp2ld3M33zq1pXIyDqD77FzQJQ1omLglrzBHUqUwiei0jf7L-WKvZwM79v7XCGg9oQdgh1rGOIwb2Y5E3NgwdJ22to7pIx2yh8er1xA0V6OXLwW-sa3PNQDJG3hqsr-13KXChFUq7eJsB7ZT4xEPpQGIwWtrUMGiHgcbCAYgbReYfzlNEVbs9MPrGaNcP6lNHYsMAx3IU4ixnsVa93HAEfHoTQ0T0u1pbZdMjCv_RTXQs-oZOXAETYUPFy_0wF-4aPbmi5UvvFnOdIMhSF1Vi1ZxlPaxdS9rrk4tNBo-3vNeO93Wk5Nbg9DzplCu6tl-KsPzCwqi9nI5SFdibOANp3aVIqglGcrmyUvsLzXWmgzAH3TsqK9KRrHjsqxQVq4AduuL7DqwUchNbCua_OxgxoOhAye5Kqaylqdqe7JCQdGH4rM2tkaOJMzBFrahNtiYdZX4XmGfzl3JQKNED-lPcBi-ORRzyTbZ4vbdtISBWQHbzuq40YqOfykFpu_F4QBYM7nKza89Kea5ZDZ9WGUe78tCAUaez7ekdXoSCGXb88KX3LT-lpoMukJnhdp-cpHyGnekPtwsWT0ijii6AATt1BKn6aCriYC0r1VbKQI3wSXNVIhp4AuUI28wDy9SkNiohPBb7jJv_kMR2Q6ekRkkLyXE2GJVXpcYG5z3w4GsKZhZhZp4SN31lAqgZvRp7rGd5SQTz07xtYiD25AUOzbRjOfJhKKqmvS8UMXfnz1WIBTYbQRhapc4wH62j-WI4DwGm5iThDRp6nELWaQP2L4VgFp1WkKX7FpP-jey9xB9Uo0a758Pnm0oJSzzMkYz5Cu2aoI3CRD1alISq8rDol7OnJ0OE4SjGozHpR-vQQzDfAiPwcWMskn6Ky3tSp_lgClC5L-v5r4V3hK7DEMTeHMXUIaq33U-LYfSBcqW_GhQGtZARG6O38Xtf2_MQ4_0V]--></g></svg>