<svg xmlns="http://www.w3.org/2000/svg" xmlns:xlink="http://www.w3.org/1999/xlink" contentStyleType="text/css" height="1739px" preserveAspectRatio="none" style="width:1338px;height:1739px;background:#FAFAFA;" version="1.1" viewBox="0 0 1338 1739" width="1338px" zoomAndPan="magnify"><title>/pipeline_sync &#8212; Message Flow</title><defs/><g><rect fill="#FAFAFA" height="1739" style="stroke:none;stroke-width:1.0;" width="1338" x="0" y="0"/><text fill="#000000" font-family="Menlo" font-size="14" font-weight="bold" lengthAdjust="spacing" textLength="245.8271" x="542.4342" y="27.9951">/pipeline_sync &#8212; Message Flow</text><line style="stroke:#94A3B8;stroke-width:0.5;stroke-dasharray:5.0,5.0;" x1="85" x2="85" y1="74.7578" y2="1702.9141"/><line style="stroke:#94A3B8;stroke-width:0.5;stroke-dasharray:5.0,5.0;" x1="465.2878" x2="465.2878" y1="74.7578" y2="1702.9141"/><line style="stroke:#94A3B8;stroke-width:0.5;stroke-dasharray:5.0,5.0;" x1="1043.1641" x2="1043.1641" y1="74.7578" y2="1702.9141"/><line style="stroke:#94A3B8;stroke-width:0.5;stroke-dasharray:5.0,5.0;" x1="1224.4136" x2="1224.4136" y1="74.7578" y2="1702.9141"/><rect fill="#F1F5F9" height="31.4609" rx="2.5" ry="2.5" style="stroke:#475569;stroke-width:0.5;" width="63.314" x="54" y="42.2969"/><text fill="#000000" font-family="Menlo" font-size="15" font-weight="bold" lengthAdjust="spacing" textLength="49.314" x="61" y="63.2202">Client</text><rect fill="#F1F5F9" height="31.4609" rx="2.5" ry="2.5" style="stroke:#475569;stroke-width:0.5;" width="63.314" x="54" y="1701.9141"/><text fill="#000000" font-family="Menlo" font-size="15" font-weight="bold" lengthAdjust="spacing" textLength="49.314" x="61" y="1722.8374">Client</text><rect fill="#F1F5F9" height="31.4609" rx="2.5" ry="2.5" style="stroke:#475569;stroke-width:0.5;" width="71.6563" x="430.2878" y="42.2969"/><text fill="#000000" font-family="Menlo" font-size="15" font-weight="bold" lengthAdjust="spacing" textLength="57.6563" x="437.2878" y="63.2202">Engine</text><rect fill="#F1F5F9" height="31.4609" rx="2.5" ry="2.5" style="stroke:#475569;stroke-width:0.5;" width="71.6563" x="430.2878" y="1701.9141"/><text fill="#000000" font-family="Menlo" font-size="15" font-weight="bold" lengthAdjust="spacing" textLength="57.6563" x="437.2878" y="1722.8374">Engine</text><rect fill="#F1F5F9" height="31.4609" rx="2.5" ry="2.5" style="stroke:#475569;stroke-width:0.5;" width="72.2495" x="1007.1641" y="42.2969"/><text fill="#000000" font-family="Menlo" font-size="15" font-weight="bold" lengthAdjust="spacing" textLength="58.2495" x="1014.1641" y="63.2202">Source</text><rect fill="#F1F5F9" height="31.4609" rx="2.5" ry="2.5" style="stroke:#475569;stroke-width:0.5;" width="72.2495" x="1007.1641" y="1701.9141"/><text fill="#000000" font-family="Menlo" font-size="15" font-weight="bold" lengthAdjust="spacing" textLength="58.2495" x="1014.1641" y="1722.8374">Source</text><rect fill="#F1F5F9" height="31.4609" rx="2.5" ry="2.5" style="stroke:#475569;stroke-width:0.5;" width="111.9614" x="1169.4136" y="42.2969"/><text fill="#000000" font-family="Menlo" font-size="15" font-weight="bold" lengthAdjust="spacing" textLength="97.9614" x="1176.4136" y="63.2202">Destination</text><rect fill="#F1F5F9" height="31.4609" rx="2.5" ry="2.5" style="stroke:#475569;stroke-width:0.5;" width="111.9614" x="1169.4136" y="1701.9141"/><text fill="#000000" font-family="Menlo" font-size="15" font-weight="bold" lengthAdjust="spacing" textLength="97.9614" x="1176.4136" y="1722.8374">Destination</text><polygon fill="#475569" points="454.116,117.0234,464.116,121.0234,454.116,125.0234,458.116,121.0234" style="stroke:#475569;stroke-width:1.0;"/><line style="stroke:#475569;stroke-width:2.0;" x1="85.657" x2="460.116" y1="121.0234" y2="121.0234"/><text fill="#000000" font-family="Menlo" font-size="13" lengthAdjust="spacing" textLength="130.7046" x="92.657" y="100.8247">POST /pipeline_sync</text><text fill="#000000" font-family="Menlo" font-size="13" lengthAdjust="spacing" textLength="332.7505" x="92.657" y="115.9575">{pipeline_config, state?, source_input_messages?}</text><path d="M90,134.0234 L90,189.0234 L479,189.0234 L479,144.0234 L469,134.0234 L90,134.0234 " fill="#FEFFDD" style="stroke:#181818;stroke-width:0.5;"/><path d="M469,134.0234 L469,144.0234 L479,144.0234 L469,134.0234 " fill="#FEFFDD" style="stroke:#181818;stroke-width:0.5;"/><text fill="#000000" font-family="Menlo" font-size="13" lengthAdjust="spacing" textLength="318.9951" x="96" y="151.0903">pipeline_config = {source, destination, streams}</text><text fill="#000000" font-family="Menlo" font-size="13" lengthAdjust="spacing" textLength="245.7939" x="96" y="166.2231">state = {source, destination, engine}</text><text fill="#000000" font-family="Menlo" font-size="13" lengthAdjust="spacing" textLength="368.4561" x="96" y="181.356">source_input_messages = Stripe.Event[] from webhooks</text><rect fill="#F8FAFC" height="3" style="stroke:#F8FAFC;stroke-width:1.0;" width="1331.6956" x="0" y="214.4063"/><line style="stroke:#CBD5E1;stroke-width:1.0;" x1="0" x2="1331.6956" y1="214.4063" y2="214.4063"/><line style="stroke:#CBD5E1;stroke-width:1.0;" x1="0" x2="1331.6956" y1="217.4063" y2="217.4063"/><rect fill="#F8FAFC" height="21.9688" style="stroke:#CBD5E1;stroke-width:2.0;" width="146.6328" x="592.5314" y="204.4219"/><text fill="#000000" font-family="Menlo" font-size="12" font-style="italic" lengthAdjust="spacing" textLength="128.8184" x="598.5314" y="219.5605">Engine builds catalog</text><polygon fill="#475569" points="1031.2888,253.5234,1041.2888,257.5234,1031.2888,261.5234,1035.2888,257.5234" style="stroke:#475569;stroke-width:1.0;"/><line style="stroke:#475569;stroke-width:2.0;" x1="466.116" x2="1037.2888" y1="257.5234" y2="257.5234"/><text fill="#000000" font-family="Menlo" font-size="13" lengthAdjust="spacing" textLength="154.6543" x="473.116" y="252.4575">discover(source_config)</text><polygon fill="#475569" points="477.116,282.6563,467.116,286.6563,477.116,290.6563,473.116,286.6563" style="stroke:#475569;stroke-width:1.0;"/><line style="stroke:#475569;stroke-width:2.0;" x1="471.116" x2="1042.2888" y1="286.6563" y2="286.6563"/><text fill="#000000" font-family="Menlo" font-size="13" lengthAdjust="spacing" textLength="192.1436" x="483.116" y="281.5903">available streams + schemas</text><line style="stroke:#475569;stroke-width:2.0;" x1="466.116" x2="508.116" y1="330.9219" y2="330.9219"/><line style="stroke:#475569;stroke-width:2.0;" x1="508.116" x2="508.116" y1="330.9219" y2="343.9219"/><line style="stroke:#475569;stroke-width:2.0;" x1="467.116" x2="508.116" y1="343.9219" y2="343.9219"/><polygon fill="#475569" points="477.116,339.9219,467.116,343.9219,477.116,347.9219,473.116,343.9219" style="stroke:#475569;stroke-width:1.0;"/><text fill="#000000" font-family="Menlo" font-size="13" lengthAdjust="spacing" textLength="160.2085" x="473.116" y="310.7231">build configured_catalog</text><text fill="#000000" font-family="Menlo" font-size="13" lengthAdjust="spacing" textLength="286.8379" x="473.116" y="325.856">(merge discover result + streams selection)</text><rect fill="#F8FAFC" height="3" style="stroke:#F8FAFC;stroke-width:1.0;" width="1331.6956" x="0" y="371.9063"/><line style="stroke:#CBD5E1;stroke-width:1.0;" x1="0" x2="1331.6956" y1="371.9063" y2="371.9063"/><line style="stroke:#CBD5E1;stroke-width:1.0;" x1="0" x2="1331.6956" y1="374.9063" y2="374.9063"/><rect fill="#F8FAFC" height="21.9688" style="stroke:#CBD5E1;stroke-width:2.0;" width="176.9023" x="577.3966" y="361.9219"/><text fill="#000000" font-family="Menlo" font-size="12" font-style="italic" lengthAdjust="spacing" textLength="159.0879" x="583.3966" y="377.0605">Source &amp; Destination start</text><polygon fill="#475569" points="1031.2888,411.0234,1041.2888,415.0234,1031.2888,419.0234,1035.2888,415.0234" style="stroke:#475569;stroke-width:1.0;"/><line style="stroke:#475569;stroke-width:2.0;" x1="466.116" x2="1037.2888" y1="415.0234" y2="415.0234"/><text fill="#000000" font-family="Menlo" font-size="13" lengthAdjust="spacing" textLength="516.3247" x="473.116" y="409.9575">read(source_config, configured_catalog, source_state, source_input_messages)</text><polygon fill="#475569" points="1213.3943,440.1563,1223.3943,444.1563,1213.3943,448.1563,1217.3943,444.1563" style="stroke:#475569;stroke-width:1.0;"/><line style="stroke:#475569;stroke-width:2.0;" x1="466.116" x2="1219.3943" y1="444.1563" y2="444.1563"/><text fill="#000000" font-family="Menlo" font-size="13" lengthAdjust="spacing" textLength="325.4189" x="473.116" y="439.0903">write(dest_config, configured_catalog, dest_state)</text><rect fill="#F8FAFC" height="3" style="stroke:#F8FAFC;stroke-width:1.0;" width="1331.6956" x="0" y="472.1406"/><line style="stroke:#CBD5E1;stroke-width:1.0;" x1="0" x2="1331.6956" y1="472.1406" y2="472.1406"/><line style="stroke:#CBD5E1;stroke-width:1.0;" x1="0" x2="1331.6956" y1="475.1406" y2="475.1406"/><rect fill="#F8FAFC" height="21.9688" style="stroke:#CBD5E1;stroke-width:2.0;" width="270.8281" x="530.4337" y="462.1563"/><text fill="#000000" font-family="Menlo" font-size="12" font-style="italic" lengthAdjust="spacing" textLength="253.0137" x="536.4337" y="477.2949">Source &amp; Destination stream concurrently</text><polygon fill="#94A3B8" points="477.116,511.2578,467.116,515.2578,477.116,519.2578,473.116,515.2578" style="stroke:#94A3B8;stroke-width:1.0;"/><line style="stroke:#94A3B8;stroke-width:2.0;" x1="471.116" x2="1042.2888" y1="515.2578" y2="515.2578"/><text fill="#000000" font-family="Menlo" font-size="13" lengthAdjust="spacing" textLength="421.0845" x="483.116" y="510.1919">trace {stream_status: {stream: "customers", status: "started"}}</text><polygon fill="#2563EB" points="477.116,540.3906,467.116,544.3906,477.116,548.3906,473.116,544.3906" style="stroke:#2563EB;stroke-width:1.0;"/><line style="stroke:#2563EB;stroke-width:2.0;" x1="471.116" x2="1042.2888" y1="544.3906" y2="544.3906"/><text fill="#000000" font-family="Menlo" font-size="13" lengthAdjust="spacing" textLength="272.0161" x="483.116" y="539.3247">record {stream: "customers", data: {...}}</text><polygon fill="#2563EB" points="1213.3943,569.5234,1223.3943,573.5234,1213.3943,577.5234,1217.3943,573.5234" style="stroke:#2563EB;stroke-width:1.0;"/><line style="stroke:#2563EB;stroke-width:2.0;" x1="466.116" x2="1219.3943" y1="573.5234" y2="573.5234"/><text fill="#000000" font-family="Menlo" font-size="13" lengthAdjust="spacing" textLength="122.6367" x="473.116" y="568.4575">record (forwarded)</text><polygon fill="#2563EB" points="477.116,598.6563,467.116,602.6563,477.116,606.6563,473.116,602.6563" style="stroke:#2563EB;stroke-width:1.0;"/><line style="stroke:#2563EB;stroke-width:2.0;" x1="471.116" x2="1042.2888" y1="602.6563" y2="602.6563"/><text fill="#000000" font-family="Menlo" font-size="13" lengthAdjust="spacing" textLength="272.0161" x="483.116" y="597.5903">record {stream: "customers", data: {...}}</text><polygon fill="#2563EB" points="1213.3943,627.7891,1223.3943,631.7891,1213.3943,635.7891,1217.3943,631.7891" style="stroke:#2563EB;stroke-width:1.0;"/><line style="stroke:#2563EB;stroke-width:2.0;" x1="466.116" x2="1219.3943" y1="631.7891" y2="631.7891"/><text fill="#000000" font-family="Menlo" font-size="13" lengthAdjust="spacing" textLength="122.6367" x="473.116" y="626.7231">record (forwarded)</text><polygon fill="#7C3AED" points="477.116,656.9219,467.116,660.9219,477.116,664.9219,473.116,660.9219" style="stroke:#7C3AED;stroke-width:1.0;"/><line style="stroke:#7C3AED;stroke-width:2.0;" x1="471.116" x2="1042.2888" y1="660.9219" y2="660.9219"/><text fill="#000000" font-family="Menlo" font-size="13" lengthAdjust="spacing" textLength="397.4458" x="483.116" y="655.856">source_state {stream: "customers", data: {remaining: [...]}}</text><polygon fill="#7C3AED" points="1213.3943,686.0547,1223.3943,690.0547,1213.3943,694.0547,1217.3943,690.0547" style="stroke:#7C3AED;stroke-width:1.0;"/><line style="stroke:#7C3AED;stroke-width:2.0;" x1="466.116" x2="1219.3943" y1="690.0547" y2="690.0547"/><text fill="#000000" font-family="Menlo" font-size="13" lengthAdjust="spacing" textLength="163.4839" x="473.116" y="684.9888">source_state (forwarded)</text><polygon fill="#94A3B8" points="477.116,715.1875,467.116,719.1875,477.116,723.1875,473.116,719.1875" style="stroke:#94A3B8;stroke-width:1.0;"/><line style="stroke:#94A3B8;stroke-width:2.0;" x1="471.116" x2="1042.2888" y1="719.1875" y2="719.1875"/><text fill="#000000" font-family="Menlo" font-size="13" lengthAdjust="spacing" textLength="272.0098" x="483.116" y="714.1216">trace {stream_status: "range_complete"}</text><polygon fill="#94A3B8" points="1213.3943,744.3203,1223.3943,748.3203,1213.3943,752.3203,1217.3943,748.3203" style="stroke:#94A3B8;stroke-width:1.0;"/><line style="stroke:#94A3B8;stroke-width:2.0;" x1="466.116" x2="1219.3943" y1="748.3203" y2="748.3203"/><text fill="#000000" font-family="Menlo" font-size="13" lengthAdjust="spacing" textLength="114.1499" x="473.116" y="743.2544">trace (forwarded)</text><polygon fill="#2563EB" points="477.116,773.4531,467.116,777.4531,477.116,781.4531,473.116,777.4531" style="stroke:#2563EB;stroke-width:1.0;"/><line style="stroke:#2563EB;stroke-width:2.0;" x1="471.116" x2="1042.2888" y1="777.4531" y2="777.4531"/><text fill="#000000" font-family="Menlo" font-size="13" lengthAdjust="spacing" textLength="272.0161" x="483.116" y="772.3872">record {stream: "customers", data: {...}}</text><polygon fill="#2563EB" points="1213.3943,802.5859,1223.3943,806.5859,1213.3943,810.5859,1217.3943,806.5859" style="stroke:#2563EB;stroke-width:1.0;"/><line style="stroke:#2563EB;stroke-width:2.0;" x1="466.116" x2="1219.3943" y1="806.5859" y2="806.5859"/><text fill="#000000" font-family="Menlo" font-size="13" lengthAdjust="spacing" textLength="122.6367" x="473.116" y="801.52">record (forwarded)</text><polygon fill="#7C3AED" points="477.116,831.7188,467.116,835.7188,477.116,839.7188,473.116,835.7188" style="stroke:#7C3AED;stroke-width:1.0;"/><line style="stroke:#7C3AED;stroke-width:2.0;" x1="471.116" x2="1042.2888" y1="835.7188" y2="835.7188"/><text fill="#000000" font-family="Menlo" font-size="13" lengthAdjust="spacing" textLength="385.0488" x="483.116" y="830.6528">source_state {stream: "customers", data: {remaining: []}}</text><polygon fill="#7C3AED" points="1213.3943,860.8516,1223.3943,864.8516,1213.3943,868.8516,1217.3943,864.8516" style="stroke:#7C3AED;stroke-width:1.0;"/><line style="stroke:#7C3AED;stroke-width:2.0;" x1="466.116" x2="1219.3943" y1="864.8516" y2="864.8516"/><text fill="#000000" font-family="Menlo" font-size="13" lengthAdjust="spacing" textLength="163.4839" x="473.116" y="859.7856">source_state (forwarded)</text><polygon fill="#94A3B8" points="477.116,889.9844,467.116,893.9844,477.116,897.9844,473.116,893.9844" style="stroke:#94A3B8;stroke-width:1.0;"/><line style="stroke:#94A3B8;stroke-width:2.0;" x1="471.116" x2="1042.2888" y1="893.9844" y2="893.9844"/><text fill="#000000" font-family="Menlo" font-size="13" lengthAdjust="spacing" textLength="227.7095" x="483.116" y="888.9185">trace {stream_status: "complete"}</text><polygon fill="#94A3B8" points="1213.3943,919.1172,1223.3943,923.1172,1213.3943,927.1172,1217.3943,923.1172" style="stroke:#94A3B8;stroke-width:1.0;"/><line style="stroke:#94A3B8;stroke-width:2.0;" x1="466.116" x2="1219.3943" y1="923.1172" y2="923.1172"/><text fill="#000000" font-family="Menlo" font-size="13" lengthAdjust="spacing" textLength="114.1499" x="473.116" y="918.0513">trace (forwarded)</text><rect fill="#F8FAFC" height="3" style="stroke:#F8FAFC;stroke-width:1.0;" width="1331.6956" x="0" y="951.1016"/><line style="stroke:#CBD5E1;stroke-width:1.0;" x1="0" x2="1331.6956" y1="951.1016" y2="951.1016"/><line style="stroke:#CBD5E1;stroke-width:1.0;" x1="0" x2="1331.6956" y1="954.1016" y2="954.1016"/><rect fill="#F8FAFC" height="21.9688" style="stroke:#CBD5E1;stroke-width:2.0;" width="204.2129" x="563.7413" y="941.1172"/><text fill="#000000" font-family="Menlo" font-size="12" font-style="italic" lengthAdjust="spacing" textLength="186.3984" x="569.7413" y="956.2559">Destination persists &amp; re-emits</text><line style="stroke:#16A34A;stroke-width:2.0;" x1="1225.3943" x2="1267.3943" y1="994.2188" y2="994.2188"/><line style="stroke:#16A34A;stroke-width:2.0;" x1="1267.3943" x2="1267.3943" y1="994.2188" y2="1007.2188"/><line style="stroke:#16A34A;stroke-width:2.0;" x1="1226.3943" x2="1267.3943" y1="1007.2188" y2="1007.2188"/><polygon fill="#16A34A" points="1236.3943,1003.2188,1226.3943,1007.2188,1236.3943,1011.2188,1232.3943,1007.2188" style="stroke:#16A34A;stroke-width:1.0;"/><text fill="#000000" font-family="Menlo" font-size="13" lengthAdjust="spacing" textLength="92.3013" x="1232.3943" y="989.1528">upsert + flush</text><polygon fill="#7C3AED" points="477.116,1032.3516,467.116,1036.3516,477.116,1040.3516,473.116,1036.3516" style="stroke:#7C3AED;stroke-width:1.0;"/><line style="stroke:#7C3AED;stroke-width:2.0;" x1="471.116" x2="1224.3943" y1="1036.3516" y2="1036.3516"/><text fill="#000000" font-family="Menlo" font-size="13" lengthAdjust="spacing" textLength="249.0122" x="483.116" y="1031.2856">source_state (re-emitted after persist)</text><polygon fill="#94A3B8" points="477.116,1061.4844,467.116,1065.4844,477.116,1069.4844,473.116,1065.4844" style="stroke:#94A3B8;stroke-width:1.0;"/><line style="stroke:#94A3B8;stroke-width:2.0;" x1="471.116" x2="1224.3943" y1="1065.4844" y2="1065.4844"/><text fill="#000000" font-family="Menlo" font-size="13" lengthAdjust="spacing" textLength="199.6782" x="483.116" y="1060.4185">trace (re-emitted after persist)</text><path d="M471,1078.4844 L471,1118.4844 L715,1118.4844 L715,1088.4844 L705,1078.4844 L471,1078.4844 " fill="#FEFFDD" style="stroke:#181818;stroke-width:0.5;"/><path d="M705,1078.4844 L705,1088.4844 L715,1088.4844 L705,1078.4844 " fill="#FEFFDD" style="stroke:#181818;stroke-width:0.5;"/><text fill="#000000" font-family="Menlo" font-size="13" lengthAdjust="spacing" textLength="223.8882" x="477" y="1095.5513">durability: state is only committed</text><text fill="#000000" font-family="Menlo" font-size="13" lengthAdjust="spacing" textLength="162.7095" x="477" y="1110.6841">after destination persists</text><polygon fill="#7C3AED" points="96.657,1140.8828,86.657,1144.8828,96.657,1148.8828,92.657,1144.8828" style="stroke:#7C3AED;stroke-width:1.0;"/><line style="stroke:#7C3AED;stroke-width:2.0;" x1="90.657" x2="465.116" y1="1144.8828" y2="1144.8828"/><text fill="#000000" font-family="Menlo" font-size="13" lengthAdjust="spacing" textLength="243.0454" x="102.657" y="1139.8169">source_state (streamed on response)</text><polygon fill="#94A3B8" points="96.657,1170.0156,86.657,1174.0156,96.657,1178.0156,92.657,1174.0156" style="stroke:#94A3B8;stroke-width:1.0;"/><line style="stroke:#94A3B8;stroke-width:2.0;" x1="90.657" x2="465.116" y1="1174.0156" y2="1174.0156"/><text fill="#000000" font-family="Menlo" font-size="13" lengthAdjust="spacing" textLength="193.7114" x="102.657" y="1168.9497">trace (streamed on response)</text><polygon fill="#16A34A" points="96.657,1199.1484,86.657,1203.1484,96.657,1207.1484,92.657,1203.1484" style="stroke:#16A34A;stroke-width:1.0;"/><line style="stroke:#16A34A;stroke-width:2.0;" x1="90.657" x2="465.116" y1="1203.1484" y2="1203.1484"/><text fill="#000000" font-family="Menlo" font-size="13" lengthAdjust="spacing" textLength="216.8486" x="102.657" y="1198.0825">progress (streamed on response)</text><rect fill="#F8FAFC" height="3" style="stroke:#F8FAFC;stroke-width:1.0;" width="1331.6956" x="0" y="1231.1328"/><line style="stroke:#CBD5E1;stroke-width:1.0;" x1="0" x2="1331.6956" y1="1231.1328" y2="1231.1328"/><line style="stroke:#CBD5E1;stroke-width:1.0;" x1="0" x2="1331.6956" y1="1234.1328" y2="1234.1328"/><rect fill="#F8FAFC" height="21.9688" style="stroke:#CBD5E1;stroke-width:2.0;" width="150.5117" x="590.5919" y="1221.1484"/><text fill="#000000" font-family="Menlo" font-size="12" font-style="italic" lengthAdjust="spacing" textLength="132.6973" x="596.5919" y="1236.2871">Stream error example</text><polygon fill="#DC2626" points="477.116,1270.25,467.116,1274.25,477.116,1278.25,473.116,1274.25" style="stroke:#DC2626;stroke-width:1.0;"/><line style="stroke:#DC2626;stroke-width:2.0;" x1="471.116" x2="1042.2888" y1="1274.25" y2="1274.25"/><text fill="#000000" font-family="Menlo" font-size="13" lengthAdjust="spacing" textLength="553.1729" x="483.116" y="1269.1841">trace {error: {error_level: "stream", stream: "invoices", message: "403 forbidden"}}</text><polygon fill="#DC2626" points="1213.3943,1299.3828,1223.3943,1303.3828,1213.3943,1307.3828,1217.3943,1303.3828" style="stroke:#DC2626;stroke-width:1.0;"/><line style="stroke:#DC2626;stroke-width:2.0;" x1="466.116" x2="1219.3943" y1="1303.3828" y2="1303.3828"/><text fill="#000000" font-family="Menlo" font-size="13" lengthAdjust="spacing" textLength="114.1499" x="473.116" y="1298.3169">trace (forwarded)</text><polygon fill="#DC2626" points="477.116,1328.5156,467.116,1332.5156,477.116,1336.5156,473.116,1332.5156" style="stroke:#DC2626;stroke-width:1.0;"/><line style="stroke:#DC2626;stroke-width:2.0;" x1="471.116" x2="1224.3943" y1="1332.5156" y2="1332.5156"/><text fill="#000000" font-family="Menlo" font-size="13" lengthAdjust="spacing" textLength="116.5811" x="483.116" y="1327.4497">trace (re-emitted)</text><polygon fill="#DC2626" points="96.657,1357.6484,86.657,1361.6484,96.657,1365.6484,92.657,1361.6484" style="stroke:#DC2626;stroke-width:1.0;"/><line style="stroke:#DC2626;stroke-width:2.0;" x1="90.657" x2="465.116" y1="1361.6484" y2="1361.6484"/><text fill="#000000" font-family="Menlo" font-size="13" lengthAdjust="spacing" textLength="193.7114" x="102.657" y="1356.5825">trace (streamed on response)</text><path d="M471,1374.6484 L471,1414.6484 L650,1414.6484 L650,1384.6484 L640,1374.6484 L471,1374.6484 " fill="#FEFFDD" style="stroke:#181818;stroke-width:0.5;"/><path d="M640,1374.6484 L640,1384.6484 L650,1384.6484 L640,1374.6484 " fill="#FEFFDD" style="stroke:#181818;stroke-width:0.5;"/><text fill="#000000" font-family="Menlo" font-size="13" lengthAdjust="spacing" textLength="158.0757" x="477" y="1391.7153">stream "invoices" stops,</text><text fill="#000000" font-family="Menlo" font-size="13" lengthAdjust="spacing" textLength="152.0391" x="477" y="1406.8481">other streams continue</text><rect fill="#F8FAFC" height="3" style="stroke:#F8FAFC;stroke-width:1.0;" width="1331.6956" x="0" y="1439.8984"/><line style="stroke:#CBD5E1;stroke-width:1.0;" x1="0" x2="1331.6956" y1="1439.8984" y2="1439.8984"/><line style="stroke:#CBD5E1;stroke-width:1.0;" x1="0" x2="1331.6956" y1="1442.8984" y2="1442.8984"/><rect fill="#F8FAFC" height="21.9688" style="stroke:#CBD5E1;stroke-width:2.0;" width="303.2773" x="514.2091" y="1429.9141"/><text fill="#000000" font-family="Menlo" font-size="12" font-style="italic" lengthAdjust="spacing" textLength="285.4629" x="520.2091" y="1445.0527">EOF &#8212; time limit hit (source iterator NOT done)</text><polygon fill="#16A34A" points="96.657,1479.0156,86.657,1483.0156,96.657,1487.0156,92.657,1483.0156" style="stroke:#16A34A;stroke-width:1.0;"/><line style="stroke:#16A34A;stroke-width:2.0;" x1="90.657" x2="465.116" y1="1483.0156" y2="1483.0156"/><text fill="#000000" font-family="Menlo" font-size="13" lengthAdjust="spacing" textLength="355.9575" x="102.657" y="1477.9497">eof {reason: "time_limit", has_more: true, state: {...}}</text><path d="M5,1496.0156 L5,1566.0156 L1307,1566.0156 L1307,1506.0156 L1297,1496.0156 L5,1496.0156 " fill="#F0FDF4" style="stroke:#181818;stroke-width:0.5;"/><path d="M1297,1496.0156 L1297,1506.0156 L1307,1506.0156 L1297,1496.0156 " fill="#F0FDF4" style="stroke:#181818;stroke-width:0.5;"/><text fill="#000000" font-family="Menlo" font-size="13" lengthAdjust="spacing" textLength="347.3438" x="464.4221" y="1513.0825">has_more: true &#8212; source iterator was not exhausted.</text><text fill="#000000" font-family="Menlo" font-size="13" lengthAdjust="spacing" textLength="297.6353" x="464.4221" y="1528.2153">Client passes eof.state back as starting state.</text><text fill="#000000" font-family="Menlo" font-size="13" lengthAdjust="spacing" textLength="374.5308" x="464.4221" y="1543.3481">Engine re-injects time_range (frozen lt from sync_run_id).</text><text fill="#000000" font-family="Menlo" font-size="13" lengthAdjust="spacing" textLength="357.189" x="464.4221" y="1558.481">Source resumes from its opaque cursor in remaining[].</text><rect fill="#F8FAFC" height="3" style="stroke:#F8FAFC;stroke-width:1.0;" width="1331.6956" x="0" y="1591.5313"/><line style="stroke:#CBD5E1;stroke-width:1.0;" x1="0" x2="1331.6956" y1="1591.5313" y2="1591.5313"/><line style="stroke:#CBD5E1;stroke-width:1.0;" x1="0" x2="1331.6956" y1="1594.5313" y2="1594.5313"/><rect fill="#F8FAFC" height="21.9688" style="stroke:#CBD5E1;stroke-width:2.0;" width="201.1602" x="565.2677" y="1581.5469"/><text fill="#000000" font-family="Menlo" font-size="12" font-style="italic" lengthAdjust="spacing" textLength="183.3457" x="571.2677" y="1596.6855">EOF &#8212; source iterator finished</text><polygon fill="#16A34A" points="96.657,1630.6484,86.657,1634.6484,96.657,1638.6484,92.657,1634.6484" style="stroke:#16A34A;stroke-width:1.0;"/><line style="stroke:#16A34A;stroke-width:2.0;" x1="90.657" x2="465.116" y1="1634.6484" y2="1634.6484"/><text fill="#000000" font-family="Menlo" font-size="13" lengthAdjust="spacing" textLength="356.459" x="102.657" y="1629.5825">eof {reason: "complete", has_more: false, state: {...}}</text><path d="M5,1647.6484 L5,1687.6484 L1307,1687.6484 L1307,1657.6484 L1297,1647.6484 L5,1647.6484 " fill="#F0FDF4" style="stroke:#181818;stroke-width:0.5;"/><path d="M1297,1647.6484 L1297,1657.6484 L1307,1657.6484 L1297,1647.6484 " fill="#F0FDF4" style="stroke:#181818;stroke-width:0.5;"/><text fill="#000000" font-family="Menlo" font-size="13" lengthAdjust="spacing" textLength="358.5664" x="472.4043" y="1664.7153">has_more: false &#8212; source iterator exhausted naturally.</text><text fill="#000000" font-family="Menlo" font-size="13" lengthAdjust="spacing" textLength="314.4629" x="472.4043" y="1679.8481">All data within the time_range has been synced.</text><!--SRC=[rLTjRnit3Fv-lu9mW276Kg-9xRGDa1MjNpwrJG3dMn8OyebdQv6bcwIpcmO1zYFs2_TBHkdaiyylMJTW0vOWS2AH3yc75CauuIJ2Jxd8KGg5O_keKlZZjz_XCrhBfWX3gPT9OX-4ofbXS-2OiKAweLRk2viZD3wZahgnNs8alY6SjZSk9onzc1fTADxJKXiuofZ_thHWyTS2LOhmb01zVJ16Bszc8drGv1ASXSDhPfn8HSwKksQS2pM5pkjmyr5_NPsSbYUVH8QVABQFsd0qqUox3cjFtjRl3xcsPN1NxZJhPkzsn3RDTTvqk-Sx8ckAkdklt2FbPg8bBtteYuKWo5txRydFj2QoQJkTy2wURbwlxPxj70URmZ4fqkGvIVArIz2J0kc3MUZLpWTgIlJvyq7jVAGBauRpKUsyZzO9nPpGob_sawG7hsuZH_S_mm0kuFfgTBDLbdVggVexrIeJqnEmZZbyJv_1r9XAg73ZULcwzlrpehH3C68wSw0pwC7HS30SzliKzHOKNC9J2N921LpvvoqOP7FxJ2h1s45132m4kNtEaDx86JBQ6Yo8nTjxo8oUmn8dCwqVR8AAW_SsIIulLunE2Y6vXPHHEZIvU9aaWnfJ8sAA2vlg1PhZQBQCfvcCTZXb2oOacr1-Or3m8zXqXdDcjt2zT30E9LfXa8-Z6tVgU8w6EiFAC1YqzDuzM8IrA37rh3H3DB4EVgWbdiWqxa18XCBhuPpiSQJAUiZBWHfeRi7t2NvfXCDZdxmNqOD0m7un31-orqyBOoYnyZ445TWlcqpaqndcUrgf470BUx7w-m8QQM6T9cPjeonhVzi8B25lF3z7oBFkUHid4T9WIW_z00QdE0Y_rMgHyg2csr_h7cVQB1br2zxypooyITiCURImcSENxHWgLA6eiL_0BTcyNncjuFhRSBkcloCZ3SFKrDVTF9Vei16jL9hzIlD_ojs_HjpVfOpUrEPJoibZOPsb5sRm5Su5_UgVKjzZdPwpTeT5h2AtQ7p3oMHXPwN0OMAE8ngz8s2PeuOLBJLBpJsXlQ1IdoY3rKJnZRWmR2AaS8yNSLG82rfHGo1YIh0xLQBnFM4dMqdfxSHHyaqkaHRrt5mhYyqjgdlh65uGhzZquhdHK-DNgmCQeVULRGvf5pE0NvbFzBhFyVJi_EoyNXn1z29-ZYKkK8P-vd4Qgx5A9q8jj4ZHrshisNJOUTq6gfI9u1nLOrMlbPdzzTG_uCf6CfjRG7_9rk5inyQ_zfzET6vFxaXbHYbUpKAQ39Jg8ixrgs5OhfsWpLaASWfcz1Dd7QrTQ9WZXhzStG3N2flh0LbB6P8pzAQPrOhOycZZW4OapfWTpxL17rY1SKEgEaqPK9ZQlHFYyIXxdV6iGqjBNIzukUtLafOrqgVypnYr6EGjqejBOSwifIM776kLrUeNVR_TXGdcj_5mx3NYSaDP4UeNsXDie6CSsYubrEXlg83sYR0V-SLlR0er5hpfbUCGzYi7bKifunk5pXdzrm0qX2rvAdmEOyUxlMzjBLSn2TlXPIHkPrG1tyDvrUis6S-OjF-8yg2urwcAQw1sGGr6oaTFmmSfGsk7fN0pYfPARfD5GeO94esUFf-dYe0_0G00]--></g></svg>