<svg xmlns="http://www.w3.org/2000/svg" xmlns:xlink="http://www.w3.org/1999/xlink" contentStyleType="text/css" height="1847px" preserveAspectRatio="none" style="width:1396px;height:1847px;background:#FAFAFA;" version="1.1" viewBox="0 0 1396 1847" width="1396px" zoomAndPan="magnify"><title>/pipeline_sync &#8212; Message Flow</title><defs/><g><rect fill="#FAFAFA" height="1847" style="stroke:none;stroke-width:1.0;" width="1396" x="0" y="0"/><text fill="#000000" font-family="Menlo" font-size="14" font-weight="bold" lengthAdjust="spacing" textLength="245.8271" x="571.1827" y="27.9951">/pipeline_sync &#8212; Message Flow</text><line style="stroke:#94A3B8;stroke-width:0.5;stroke-dasharray:5.0,5.0;" x1="85" x2="85" y1="74.7578" y2="1811.4453"/><line style="stroke:#94A3B8;stroke-width:0.5;stroke-dasharray:5.0,5.0;" x1="559.6331" x2="559.6331" y1="74.7578" y2="1811.4453"/><line style="stroke:#94A3B8;stroke-width:0.5;stroke-dasharray:5.0,5.0;" x1="1100.6611" x2="1100.6611" y1="74.7578" y2="1811.4453"/><line style="stroke:#94A3B8;stroke-width:0.5;stroke-dasharray:5.0,5.0;" x1="1281.9106" x2="1281.9106" y1="74.7578" y2="1811.4453"/><rect fill="#F1F5F9" height="31.4609" rx="2.5" ry="2.5" style="stroke:#475569;stroke-width:0.5;" width="63.314" x="54" y="42.2969"/><text fill="#000000" font-family="Menlo" font-size="15" font-weight="bold" lengthAdjust="spacing" textLength="49.314" x="61" y="63.2202">Client</text><rect fill="#F1F5F9" height="31.4609" rx="2.5" ry="2.5" style="stroke:#475569;stroke-width:0.5;" width="63.314" x="54" y="1810.4453"/><text fill="#000000" font-family="Menlo" font-size="15" font-weight="bold" lengthAdjust="spacing" textLength="49.314" x="61" y="1831.3687">Client</text><rect fill="#F1F5F9" height="31.4609" rx="2.5" ry="2.5" style="stroke:#475569;stroke-width:0.5;" width="71.6563" x="524.6331" y="42.2969"/><text fill="#000000" font-family="Menlo" font-size="15" font-weight="bold" lengthAdjust="spacing" textLength="57.6563" x="531.6331" y="63.2202">Engine</text><rect fill="#F1F5F9" height="31.4609" rx="2.5" ry="2.5" style="stroke:#475569;stroke-width:0.5;" width="71.6563" x="524.6331" y="1810.4453"/><text fill="#000000" font-family="Menlo" font-size="15" font-weight="bold" lengthAdjust="spacing" textLength="57.6563" x="531.6331" y="1831.3687">Engine</text><rect fill="#F1F5F9" height="31.4609" rx="2.5" ry="2.5" style="stroke:#475569;stroke-width:0.5;" width="72.2495" x="1064.6611" y="42.2969"/><text fill="#000000" font-family="Menlo" font-size="15" font-weight="bold" lengthAdjust="spacing" textLength="58.2495" x="1071.6611" y="63.2202">Source</text><rect fill="#F1F5F9" height="31.4609" rx="2.5" ry="2.5" style="stroke:#475569;stroke-width:0.5;" width="72.2495" x="1064.6611" y="1810.4453"/><text fill="#000000" font-family="Menlo" font-size="15" font-weight="bold" lengthAdjust="spacing" textLength="58.2495" x="1071.6611" y="1831.3687">Source</text><rect fill="#F1F5F9" height="31.4609" rx="2.5" ry="2.5" style="stroke:#475569;stroke-width:0.5;" width="111.9614" x="1226.9106" y="42.2969"/><text fill="#000000" font-family="Menlo" font-size="15" font-weight="bold" lengthAdjust="spacing" textLength="97.9614" x="1233.9106" y="63.2202">Destination</text><rect fill="#F1F5F9" height="31.4609" rx="2.5" ry="2.5" style="stroke:#475569;stroke-width:0.5;" width="111.9614" x="1226.9106" y="1810.4453"/><text fill="#000000" font-family="Menlo" font-size="15" font-weight="bold" lengthAdjust="spacing" textLength="97.9614" x="1233.9106" y="1831.3687">Destination</text><polygon fill="#475569" points="548.4612,117.0234,558.4612,121.0234,548.4612,125.0234,552.4612,121.0234" style="stroke:#475569;stroke-width:1.0;"/><line style="stroke:#475569;stroke-width:2.0;" x1="85.657" x2="554.4612" y1="121.0234" y2="121.0234"/><text fill="#000000" font-family="Menlo" font-size="13" lengthAdjust="spacing" textLength="130.7046" x="92.657" y="100.8247">POST /pipeline_sync</text><text fill="#000000" font-family="Menlo" font-size="13" lengthAdjust="spacing" textLength="332.7505" x="92.657" y="115.9575">{pipeline_config, state?, source_input_messages?}</text><path d="M90,134.0234 L90,189.0234 L479,189.0234 L479,144.0234 L469,134.0234 L90,134.0234 " fill="#FEFFDD" style="stroke:#181818;stroke-width:0.5;"/><path d="M469,134.0234 L469,144.0234 L479,144.0234 L469,134.0234 " fill="#FEFFDD" style="stroke:#181818;stroke-width:0.5;"/><text fill="#000000" font-family="Menlo" font-size="13" lengthAdjust="spacing" textLength="318.9951" x="96" y="151.0903">pipeline_config = {source, destination, streams}</text><text fill="#000000" font-family="Menlo" font-size="13" lengthAdjust="spacing" textLength="245.7939" x="96" y="166.2231">state = {source, destination, engine}</text><text fill="#000000" font-family="Menlo" font-size="13" lengthAdjust="spacing" textLength="368.4561" x="96" y="181.356">source_input_messages = Stripe.Event[] from webhooks</text><rect fill="#F8FAFC" height="3" style="stroke:#F8FAFC;stroke-width:1.0;" width="1389.1926" x="0" y="214.4063"/><line style="stroke:#CBD5E1;stroke-width:1.0;" x1="0" x2="1389.1926" y1="214.4063" y2="214.4063"/><line style="stroke:#CBD5E1;stroke-width:1.0;" x1="0" x2="1389.1926" y1="217.4063" y2="217.4063"/><rect fill="#F8FAFC" height="21.9688" style="stroke:#CBD5E1;stroke-width:2.0;" width="146.6328" x="621.2799" y="204.4219"/><text fill="#000000" font-family="Menlo" font-size="12" font-style="italic" lengthAdjust="spacing" textLength="128.8184" x="627.2799" y="219.5605">Engine builds catalog</text><polygon fill="#475569" points="1088.7859,253.5234,1098.7859,257.5234,1088.7859,261.5234,1092.7859,257.5234" style="stroke:#475569;stroke-width:1.0;"/><line style="stroke:#475569;stroke-width:2.0;" x1="560.4612" x2="1094.7859" y1="257.5234" y2="257.5234"/><text fill="#000000" font-family="Menlo" font-size="13" lengthAdjust="spacing" textLength="154.6543" x="567.4612" y="252.4575">discover(source_config)</text><polygon fill="#475569" points="571.4612,282.6563,561.4612,286.6563,571.4612,290.6563,567.4612,286.6563" style="stroke:#475569;stroke-width:1.0;"/><line style="stroke:#475569;stroke-width:2.0;" x1="565.4612" x2="1099.7859" y1="286.6563" y2="286.6563"/><text fill="#000000" font-family="Menlo" font-size="13" lengthAdjust="spacing" textLength="192.1436" x="577.4612" y="281.5903">available streams + schemas</text><line style="stroke:#475569;stroke-width:2.0;" x1="560.4612" x2="602.4612" y1="330.9219" y2="330.9219"/><line style="stroke:#475569;stroke-width:2.0;" x1="602.4612" x2="602.4612" y1="330.9219" y2="343.9219"/><line style="stroke:#475569;stroke-width:2.0;" x1="561.4612" x2="602.4612" y1="343.9219" y2="343.9219"/><polygon fill="#475569" points="571.4612,339.9219,561.4612,343.9219,571.4612,347.9219,567.4612,343.9219" style="stroke:#475569;stroke-width:1.0;"/><text fill="#000000" font-family="Menlo" font-size="13" lengthAdjust="spacing" textLength="160.2085" x="567.4612" y="310.7231">build configured_catalog</text><text fill="#000000" font-family="Menlo" font-size="13" lengthAdjust="spacing" textLength="286.8379" x="567.4612" y="325.856">(merge discover result + streams selection)</text><polygon fill="#16A34A" points="96.657,369.0547,86.657,373.0547,96.657,377.0547,92.657,373.0547" style="stroke:#16A34A;stroke-width:1.0;"/><line style="stroke:#16A34A;stroke-width:2.0;" x1="90.657" x2="559.4612" y1="373.0547" y2="373.0547"/><text fill="#000000" font-family="Menlo" font-size="13" lengthAdjust="spacing" textLength="403.4761" x="102.657" y="367.9888">progress {streams: {customers: {status: "not_started", ...}}}</text><path d="M565,386.0547 L565,426.0547 L812,426.0547 L812,396.0547 L802,386.0547 L565,386.0547 " fill="#FEFFDD" style="stroke:#181818;stroke-width:0.5;"/><path d="M802,386.0547 L802,396.0547 L812,396.0547 L802,386.0547 " fill="#FEFFDD" style="stroke:#181818;stroke-width:0.5;"/><text fill="#000000" font-family="Menlo" font-size="13" lengthAdjust="spacing" textLength="226.3765" x="571" y="403.1216">first progress emitted immediately</text><text fill="#000000" font-family="Menlo" font-size="13" lengthAdjust="spacing" textLength="193.3242" x="571" y="418.2544">before source sends any data</text><rect fill="#F8FAFC" height="3" style="stroke:#F8FAFC;stroke-width:1.0;" width="1389.1926" x="0" y="451.3047"/><line style="stroke:#CBD5E1;stroke-width:1.0;" x1="0" x2="1389.1926" y1="451.3047" y2="451.3047"/><line style="stroke:#CBD5E1;stroke-width:1.0;" x1="0" x2="1389.1926" y1="454.3047" y2="454.3047"/><rect fill="#F8FAFC" height="21.9688" style="stroke:#CBD5E1;stroke-width:2.0;" width="176.9023" x="606.1451" y="441.3203"/><text fill="#000000" font-family="Menlo" font-size="12" font-style="italic" lengthAdjust="spacing" textLength="159.0879" x="612.1451" y="456.459">Source &amp; Destination start</text><polygon fill="#475569" points="1088.7859,490.4219,1098.7859,494.4219,1088.7859,498.4219,1092.7859,494.4219" style="stroke:#475569;stroke-width:1.0;"/><line style="stroke:#475569;stroke-width:2.0;" x1="560.4612" x2="1094.7859" y1="494.4219" y2="494.4219"/><text fill="#000000" font-family="Menlo" font-size="13" lengthAdjust="spacing" textLength="516.3247" x="567.4612" y="489.356">read(source_config, configured_catalog, source_state, source_input_messages)</text><polygon fill="#475569" points="1270.8914,519.5547,1280.8914,523.5547,1270.8914,527.5547,1274.8914,523.5547" style="stroke:#475569;stroke-width:1.0;"/><line style="stroke:#475569;stroke-width:2.0;" x1="560.4612" x2="1276.8914" y1="523.5547" y2="523.5547"/><text fill="#000000" font-family="Menlo" font-size="13" lengthAdjust="spacing" textLength="325.4189" x="567.4612" y="518.4888">write(dest_config, configured_catalog, dest_state)</text><rect fill="#F8FAFC" height="3" style="stroke:#F8FAFC;stroke-width:1.0;" width="1389.1926" x="0" y="551.5391"/><line style="stroke:#CBD5E1;stroke-width:1.0;" x1="0" x2="1389.1926" y1="551.5391" y2="551.5391"/><line style="stroke:#CBD5E1;stroke-width:1.0;" x1="0" x2="1389.1926" y1="554.5391" y2="554.5391"/><rect fill="#F8FAFC" height="21.9688" style="stroke:#CBD5E1;stroke-width:2.0;" width="270.8281" x="559.1823" y="541.5547"/><text fill="#000000" font-family="Menlo" font-size="12" font-style="italic" lengthAdjust="spacing" textLength="253.0137" x="565.1823" y="556.6934">Source &amp; Destination stream concurrently</text><polygon fill="#94A3B8" points="571.4612,590.6563,561.4612,594.6563,571.4612,598.6563,567.4612,594.6563" style="stroke:#94A3B8;stroke-width:1.0;"/><line style="stroke:#94A3B8;stroke-width:2.0;" x1="565.4612" x2="1099.7859" y1="594.6563" y2="594.6563"/><text fill="#000000" font-family="Menlo" font-size="13" lengthAdjust="spacing" textLength="346.2266" x="577.4612" y="589.5903">stream_status {stream: "customers", status: "start"}</text><polygon fill="#2563EB" points="571.4612,619.7891,561.4612,623.7891,571.4612,627.7891,567.4612,623.7891" style="stroke:#2563EB;stroke-width:1.0;"/><line style="stroke:#2563EB;stroke-width:2.0;" x1="565.4612" x2="1099.7859" y1="623.7891" y2="623.7891"/><text fill="#000000" font-family="Menlo" font-size="13" lengthAdjust="spacing" textLength="272.0161" x="577.4612" y="618.7231">record {stream: "customers", data: {...}}</text><polygon fill="#2563EB" points="1270.8914,648.9219,1280.8914,652.9219,1270.8914,656.9219,1274.8914,652.9219" style="stroke:#2563EB;stroke-width:1.0;"/><line style="stroke:#2563EB;stroke-width:2.0;" x1="560.4612" x2="1276.8914" y1="652.9219" y2="652.9219"/><text fill="#000000" font-family="Menlo" font-size="13" lengthAdjust="spacing" textLength="122.6367" x="567.4612" y="647.856">record (forwarded)</text><polygon fill="#2563EB" points="571.4612,678.0547,561.4612,682.0547,571.4612,686.0547,567.4612,682.0547" style="stroke:#2563EB;stroke-width:1.0;"/><line style="stroke:#2563EB;stroke-width:2.0;" x1="565.4612" x2="1099.7859" y1="682.0547" y2="682.0547"/><text fill="#000000" font-family="Menlo" font-size="13" lengthAdjust="spacing" textLength="272.0161" x="577.4612" y="676.9888">record {stream: "customers", data: {...}}</text><polygon fill="#2563EB" points="1270.8914,707.1875,1280.8914,711.1875,1270.8914,715.1875,1274.8914,711.1875" style="stroke:#2563EB;stroke-width:1.0;"/><line style="stroke:#2563EB;stroke-width:2.0;" x1="560.4612" x2="1276.8914" y1="711.1875" y2="711.1875"/><text fill="#000000" font-family="Menlo" font-size="13" lengthAdjust="spacing" textLength="122.6367" x="567.4612" y="706.1216">record (forwarded)</text><polygon fill="#7C3AED" points="571.4612,736.3203,561.4612,740.3203,571.4612,744.3203,567.4612,740.3203" style="stroke:#7C3AED;stroke-width:1.0;"/><line style="stroke:#7C3AED;stroke-width:2.0;" x1="565.4612" x2="1099.7859" y1="740.3203" y2="740.3203"/><text fill="#000000" font-family="Menlo" font-size="13" lengthAdjust="spacing" textLength="397.4458" x="577.4612" y="735.2544">source_state {stream: "customers", data: {remaining: [...]}}</text><polygon fill="#7C3AED" points="1270.8914,765.4531,1280.8914,769.4531,1270.8914,773.4531,1274.8914,769.4531" style="stroke:#7C3AED;stroke-width:1.0;"/><line style="stroke:#7C3AED;stroke-width:2.0;" x1="560.4612" x2="1276.8914" y1="769.4531" y2="769.4531"/><text fill="#000000" font-family="Menlo" font-size="13" lengthAdjust="spacing" textLength="163.4839" x="567.4612" y="764.3872">source_state (forwarded)</text><polygon fill="#94A3B8" points="571.4612,794.5859,561.4612,798.5859,571.4612,802.5859,567.4612,798.5859" style="stroke:#94A3B8;stroke-width:1.0;"/><line style="stroke:#94A3B8;stroke-width:2.0;" x1="565.4612" x2="1099.7859" y1="798.5859" y2="798.5859"/><text fill="#000000" font-family="Menlo" font-size="13" lengthAdjust="spacing" textLength="420.9702" x="577.4612" y="793.52">stream_status {stream: "customers", status: "range_complete"}</text><polygon fill="#94A3B8" points="1270.8914,823.7188,1280.8914,827.7188,1270.8914,831.7188,1274.8914,827.7188" style="stroke:#94A3B8;stroke-width:1.0;"/><line style="stroke:#94A3B8;stroke-width:2.0;" x1="560.4612" x2="1276.8914" y1="827.7188" y2="827.7188"/><text fill="#000000" font-family="Menlo" font-size="13" lengthAdjust="spacing" textLength="172.8848" x="567.4612" y="822.6528">stream_status (forwarded)</text><polygon fill="#2563EB" points="571.4612,852.8516,561.4612,856.8516,571.4612,860.8516,567.4612,856.8516" style="stroke:#2563EB;stroke-width:1.0;"/><line style="stroke:#2563EB;stroke-width:2.0;" x1="565.4612" x2="1099.7859" y1="856.8516" y2="856.8516"/><text fill="#000000" font-family="Menlo" font-size="13" lengthAdjust="spacing" textLength="272.0161" x="577.4612" y="851.7856">record {stream: "customers", data: {...}}</text><polygon fill="#2563EB" points="1270.8914,881.9844,1280.8914,885.9844,1270.8914,889.9844,1274.8914,885.9844" style="stroke:#2563EB;stroke-width:1.0;"/><line style="stroke:#2563EB;stroke-width:2.0;" x1="560.4612" x2="1276.8914" y1="885.9844" y2="885.9844"/><text fill="#000000" font-family="Menlo" font-size="13" lengthAdjust="spacing" textLength="122.6367" x="567.4612" y="880.9185">record (forwarded)</text><polygon fill="#7C3AED" points="571.4612,911.1172,561.4612,915.1172,571.4612,919.1172,567.4612,915.1172" style="stroke:#7C3AED;stroke-width:1.0;"/><line style="stroke:#7C3AED;stroke-width:2.0;" x1="565.4612" x2="1099.7859" y1="915.1172" y2="915.1172"/><text fill="#000000" font-family="Menlo" font-size="13" lengthAdjust="spacing" textLength="385.0488" x="577.4612" y="910.0513">source_state {stream: "customers", data: {remaining: []}}</text><polygon fill="#7C3AED" points="1270.8914,940.25,1280.8914,944.25,1270.8914,948.25,1274.8914,944.25" style="stroke:#7C3AED;stroke-width:1.0;"/><line style="stroke:#7C3AED;stroke-width:2.0;" x1="560.4612" x2="1276.8914" y1="944.25" y2="944.25"/><text fill="#000000" font-family="Menlo" font-size="13" lengthAdjust="spacing" textLength="163.4839" x="567.4612" y="939.1841">source_state (forwarded)</text><polygon fill="#94A3B8" points="571.4612,969.3828,561.4612,973.3828,571.4612,977.3828,567.4612,973.3828" style="stroke:#94A3B8;stroke-width:1.0;"/><line style="stroke:#94A3B8;stroke-width:2.0;" x1="565.4612" x2="1099.7859" y1="973.3828" y2="973.3828"/><text fill="#000000" font-family="Menlo" font-size="13" lengthAdjust="spacing" textLength="376.6699" x="577.4612" y="968.3169">stream_status {stream: "customers", status: "complete"}</text><polygon fill="#94A3B8" points="1270.8914,998.5156,1280.8914,1002.5156,1270.8914,1006.5156,1274.8914,1002.5156" style="stroke:#94A3B8;stroke-width:1.0;"/><line style="stroke:#94A3B8;stroke-width:2.0;" x1="560.4612" x2="1276.8914" y1="1002.5156" y2="1002.5156"/><text fill="#000000" font-family="Menlo" font-size="13" lengthAdjust="spacing" textLength="172.8848" x="567.4612" y="997.4497">stream_status (forwarded)</text><rect fill="#F8FAFC" height="3" style="stroke:#F8FAFC;stroke-width:1.0;" width="1389.1926" x="0" y="1030.5"/><line style="stroke:#CBD5E1;stroke-width:1.0;" x1="0" x2="1389.1926" y1="1030.5" y2="1030.5"/><line style="stroke:#CBD5E1;stroke-width:1.0;" x1="0" x2="1389.1926" y1="1033.5" y2="1033.5"/><rect fill="#F8FAFC" height="21.9688" style="stroke:#CBD5E1;stroke-width:2.0;" width="204.2129" x="592.4899" y="1020.5156"/><text fill="#000000" font-family="Menlo" font-size="12" font-style="italic" lengthAdjust="spacing" textLength="186.3984" x="598.4899" y="1035.6543">Destination persists &amp; re-emits</text><line style="stroke:#16A34A;stroke-width:2.0;" x1="1282.8914" x2="1324.8914" y1="1073.6172" y2="1073.6172"/><line style="stroke:#16A34A;stroke-width:2.0;" x1="1324.8914" x2="1324.8914" y1="1073.6172" y2="1086.6172"/><line style="stroke:#16A34A;stroke-width:2.0;" x1="1283.8914" x2="1324.8914" y1="1086.6172" y2="1086.6172"/><polygon fill="#16A34A" points="1293.8914,1082.6172,1283.8914,1086.6172,1293.8914,1090.6172,1289.8914,1086.6172" style="stroke:#16A34A;stroke-width:1.0;"/><text fill="#000000" font-family="Menlo" font-size="13" lengthAdjust="spacing" textLength="92.3013" x="1289.8914" y="1068.5513">upsert + flush</text><polygon fill="#7C3AED" points="571.4612,1111.75,561.4612,1115.75,571.4612,1119.75,567.4612,1115.75" style="stroke:#7C3AED;stroke-width:1.0;"/><line style="stroke:#7C3AED;stroke-width:2.0;" x1="565.4612" x2="1281.8914" y1="1115.75" y2="1115.75"/><text fill="#000000" font-family="Menlo" font-size="13" lengthAdjust="spacing" textLength="249.0122" x="577.4612" y="1110.6841">source_state (re-emitted after persist)</text><polygon fill="#94A3B8" points="571.4612,1140.8828,561.4612,1144.8828,571.4612,1148.8828,567.4612,1144.8828" style="stroke:#94A3B8;stroke-width:1.0;"/><line style="stroke:#94A3B8;stroke-width:2.0;" x1="565.4612" x2="1281.8914" y1="1144.8828" y2="1144.8828"/><text fill="#000000" font-family="Menlo" font-size="13" lengthAdjust="spacing" textLength="258.4131" x="577.4612" y="1139.8169">stream_status (re-emitted after persist)</text><path d="M565,1157.8828 L565,1197.8828 L809,1197.8828 L809,1167.8828 L799,1157.8828 L565,1157.8828 " fill="#FEFFDD" style="stroke:#181818;stroke-width:0.5;"/><path d="M799,1157.8828 L799,1167.8828 L809,1167.8828 L799,1157.8828 " fill="#FEFFDD" style="stroke:#181818;stroke-width:0.5;"/><text fill="#000000" font-family="Menlo" font-size="13" lengthAdjust="spacing" textLength="223.8882" x="571" y="1174.9497">durability: state is only committed</text><text fill="#000000" font-family="Menlo" font-size="13" lengthAdjust="spacing" textLength="162.7095" x="571" y="1190.0825">after destination persists</text><polygon fill="#7C3AED" points="96.657,1220.2813,86.657,1224.2813,96.657,1228.2813,92.657,1224.2813" style="stroke:#7C3AED;stroke-width:1.0;"/><line style="stroke:#7C3AED;stroke-width:2.0;" x1="90.657" x2="559.4612" y1="1224.2813" y2="1224.2813"/><text fill="#000000" font-family="Menlo" font-size="13" lengthAdjust="spacing" textLength="243.0454" x="102.657" y="1219.2153">source_state (streamed on response)</text><polygon fill="#94A3B8" points="96.657,1249.4141,86.657,1253.4141,96.657,1257.4141,92.657,1253.4141" style="stroke:#94A3B8;stroke-width:1.0;"/><line style="stroke:#94A3B8;stroke-width:2.0;" x1="90.657" x2="559.4612" y1="1253.4141" y2="1253.4141"/><text fill="#000000" font-family="Menlo" font-size="13" lengthAdjust="spacing" textLength="252.4463" x="102.657" y="1248.3481">stream_status (streamed on response)</text><polygon fill="#16A34A" points="96.657,1278.5469,86.657,1282.5469,96.657,1286.5469,92.657,1282.5469" style="stroke:#16A34A;stroke-width:1.0;"/><line style="stroke:#16A34A;stroke-width:2.0;" x1="90.657" x2="559.4612" y1="1282.5469" y2="1282.5469"/><text fill="#000000" font-family="Menlo" font-size="13" lengthAdjust="spacing" textLength="216.8486" x="102.657" y="1277.481">progress (streamed on response)</text><rect fill="#F8FAFC" height="3" style="stroke:#F8FAFC;stroke-width:1.0;" width="1389.1926" x="0" y="1310.5313"/><line style="stroke:#CBD5E1;stroke-width:1.0;" x1="0" x2="1389.1926" y1="1310.5313" y2="1310.5313"/><line style="stroke:#CBD5E1;stroke-width:1.0;" x1="0" x2="1389.1926" y1="1313.5313" y2="1313.5313"/><rect fill="#F8FAFC" height="21.9688" style="stroke:#CBD5E1;stroke-width:2.0;" width="150.5117" x="619.3405" y="1300.5469"/><text fill="#000000" font-family="Menlo" font-size="12" font-style="italic" lengthAdjust="spacing" textLength="132.6973" x="625.3405" y="1315.6855">Stream error example</text><polygon fill="#DC2626" points="571.4612,1349.6484,561.4612,1353.6484,571.4612,1357.6484,567.4612,1353.6484" style="stroke:#DC2626;stroke-width:1.0;"/><line style="stroke:#DC2626;stroke-width:2.0;" x1="565.4612" x2="1099.7859" y1="1353.6484" y2="1353.6484"/><text fill="#000000" font-family="Menlo" font-size="13" lengthAdjust="spacing" textLength="430.0537" x="577.4612" y="1348.5825">log {level: "error", stream: "invoices", message: "403 forbidden"}</text><polygon fill="#94A3B8" points="571.4612,1378.7813,561.4612,1382.7813,571.4612,1386.7813,567.4612,1382.7813" style="stroke:#94A3B8;stroke-width:1.0;"/><line style="stroke:#94A3B8;stroke-width:2.0;" x1="565.4612" x2="1099.7859" y1="1382.7813" y2="1382.7813"/><text fill="#000000" font-family="Menlo" font-size="13" lengthAdjust="spacing" textLength="332.9727" x="577.4612" y="1377.7153">stream_status {stream: "invoices", status: "error"}</text><polygon fill="#94A3B8" points="1270.8914,1407.9141,1280.8914,1411.9141,1270.8914,1415.9141,1274.8914,1411.9141" style="stroke:#94A3B8;stroke-width:1.0;"/><line style="stroke:#94A3B8;stroke-width:2.0;" x1="560.4612" x2="1276.8914" y1="1411.9141" y2="1411.9141"/><text fill="#000000" font-family="Menlo" font-size="13" lengthAdjust="spacing" textLength="172.8848" x="567.4612" y="1406.8481">stream_status (forwarded)</text><polygon fill="#94A3B8" points="571.4612,1437.0469,561.4612,1441.0469,571.4612,1445.0469,567.4612,1441.0469" style="stroke:#94A3B8;stroke-width:1.0;"/><line style="stroke:#94A3B8;stroke-width:2.0;" x1="565.4612" x2="1281.8914" y1="1441.0469" y2="1441.0469"/><text fill="#000000" font-family="Menlo" font-size="13" lengthAdjust="spacing" textLength="175.3159" x="577.4612" y="1435.981">stream_status (re-emitted)</text><polygon fill="#94A3B8" points="96.657,1466.1797,86.657,1470.1797,96.657,1474.1797,92.657,1470.1797" style="stroke:#94A3B8;stroke-width:1.0;"/><line style="stroke:#94A3B8;stroke-width:2.0;" x1="90.657" x2="559.4612" y1="1470.1797" y2="1470.1797"/><text fill="#000000" font-family="Menlo" font-size="13" lengthAdjust="spacing" textLength="252.4463" x="102.657" y="1465.1138">stream_status (streamed on response)</text><path d="M565,1483.1797 L565,1523.1797 L744,1523.1797 L744,1493.1797 L734,1483.1797 L565,1483.1797 " fill="#FEFFDD" style="stroke:#181818;stroke-width:0.5;"/><path d="M734,1483.1797 L734,1493.1797 L744,1493.1797 L734,1483.1797 " fill="#FEFFDD" style="stroke:#181818;stroke-width:0.5;"/><text fill="#000000" font-family="Menlo" font-size="13" lengthAdjust="spacing" textLength="158.0757" x="571" y="1500.2466">stream "invoices" stops,</text><text fill="#000000" font-family="Menlo" font-size="13" lengthAdjust="spacing" textLength="152.0391" x="571" y="1515.3794">other streams continue</text><rect fill="#F8FAFC" height="3" style="stroke:#F8FAFC;stroke-width:1.0;" width="1389.1926" x="0" y="1548.4297"/><line style="stroke:#CBD5E1;stroke-width:1.0;" x1="0" x2="1389.1926" y1="1548.4297" y2="1548.4297"/><line style="stroke:#CBD5E1;stroke-width:1.0;" x1="0" x2="1389.1926" y1="1551.4297" y2="1551.4297"/><rect fill="#F8FAFC" height="21.9688" style="stroke:#CBD5E1;stroke-width:2.0;" width="303.2773" x="542.9576" y="1538.4453"/><text fill="#000000" font-family="Menlo" font-size="12" font-style="italic" lengthAdjust="spacing" textLength="285.4629" x="548.9576" y="1553.584">EOF &#8212; time limit hit (source iterator NOT done)</text><polygon fill="#16A34A" points="96.657,1587.5469,86.657,1591.5469,96.657,1595.5469,92.657,1591.5469" style="stroke:#16A34A;stroke-width:1.0;"/><line style="stroke:#16A34A;stroke-width:2.0;" x1="90.657" x2="559.4612" y1="1591.5469" y2="1591.5469"/><text fill="#000000" font-family="Menlo" font-size="13" lengthAdjust="spacing" textLength="446.5576" x="102.657" y="1586.481">eof {has_more: true, ending_state, run_progress, request_progress}</text><path d="M5,1604.5469 L5,1674.5469 L1364,1674.5469 L1364,1614.5469 L1354,1604.5469 L5,1604.5469 " fill="#F0FDF4" style="stroke:#181818;stroke-width:0.5;"/><path d="M1354,1604.5469 L1354,1614.5469 L1364,1614.5469 L1354,1604.5469 " fill="#F0FDF4" style="stroke:#181818;stroke-width:0.5;"/><text fill="#000000" font-family="Menlo" font-size="13" lengthAdjust="spacing" textLength="347.3438" x="466.9548" y="1621.6138">has_more: true &#8212; source iterator was not exhausted.</text><text fill="#000000" font-family="Menlo" font-size="13" lengthAdjust="spacing" textLength="351.0952" x="466.9548" y="1636.7466">Client passes eof.ending_state back as starting_state.</text><text fill="#000000" font-family="Menlo" font-size="13" lengthAdjust="spacing" textLength="426.9624" x="466.9548" y="1651.8794">Engine re-injects time_range (lt = time_ceiling from sync_run_id).</text><text fill="#000000" font-family="Menlo" font-size="13" lengthAdjust="spacing" textLength="357.189" x="466.9548" y="1667.0122">Source resumes from its opaque cursor in remaining[].</text><rect fill="#F8FAFC" height="3" style="stroke:#F8FAFC;stroke-width:1.0;" width="1389.1926" x="0" y="1700.0625"/><line style="stroke:#CBD5E1;stroke-width:1.0;" x1="0" x2="1389.1926" y1="1700.0625" y2="1700.0625"/><line style="stroke:#CBD5E1;stroke-width:1.0;" x1="0" x2="1389.1926" y1="1703.0625" y2="1703.0625"/><rect fill="#F8FAFC" height="21.9688" style="stroke:#CBD5E1;stroke-width:2.0;" width="201.1602" x="594.0162" y="1690.0781"/><text fill="#000000" font-family="Menlo" font-size="12" font-style="italic" lengthAdjust="spacing" textLength="183.3457" x="600.0162" y="1705.2168">EOF &#8212; source iterator finished</text><polygon fill="#16A34A" points="96.657,1739.1797,86.657,1743.1797,96.657,1747.1797,92.657,1743.1797" style="stroke:#16A34A;stroke-width:1.0;"/><line style="stroke:#16A34A;stroke-width:2.0;" x1="90.657" x2="559.4612" y1="1743.1797" y2="1743.1797"/><text fill="#000000" font-family="Menlo" font-size="13" lengthAdjust="spacing" textLength="450.8042" x="102.657" y="1738.1138">eof {has_more: false, ending_state, run_progress, request_progress}</text><path d="M5,1756.1797 L5,1796.1797 L1364,1796.1797 L1364,1766.1797 L1354,1756.1797 L5,1756.1797 " fill="#F0FDF4" style="stroke:#181818;stroke-width:0.5;"/><path d="M1354,1756.1797 L1354,1766.1797 L1364,1766.1797 L1354,1756.1797 " fill="#F0FDF4" style="stroke:#181818;stroke-width:0.5;"/><text fill="#000000" font-family="Menlo" font-size="13" lengthAdjust="spacing" textLength="358.5664" x="501.1528" y="1773.2466">has_more: false &#8212; source iterator exhausted naturally.</text><text fill="#000000" font-family="Menlo" font-size="13" lengthAdjust="spacing" textLength="314.4629" x="501.1528" y="1788.3794">All data within the time_range has been synced.</text><!--SRC=[rLVRRXit47tVho1aeB1GHuslIGouGIB9Jxa1ofjj2DHoLc9DaLkIQqKH3FGZ-eNzaXvogRja904Qe3OCMLpEcPapXyDPBxqYzbifIr9IKzzDTSx- -UjlzfwSuqDYryfCiipTIrrooyTCKC4hvQ-DzX_uc5ZZFMbb6hjtzEHNOiUdAmy7FByVMbDfqJRAM7PGyF2xwi7HdnNfdDWiO_XvOwsPV1x9_5uZ97OI5pznwsKkIwxz9ow4r4DszZm-UMk-p5UEwvLtig1toEsjiO9iSllgZ9yENgu_tnVQXiFjVSV5UV5gQzkgkxCNv-SNMrkM59tlVEIdgCt0A577q94F4f3R_byYpdnjowhlV23EwNZryTBloTPoz2azLpBF7hEiN8R4saeIFhXZxRNrhXw2lh3UNLllcShcSRstjjuXvwNcNXeT7dQohCsUtIIExdvdNNR9FdtiVTwGvQsUBRxdHXToUCISvvvUupEwwaD2bU-FQ-cwru-PDfwObSEHPwPWRNPmtRs-xdIGzGOKksAp6kG80bx45pnOucFt29FeREz6YYp4VRk2WLtFMpXjTH_0uiqTAwmPimaDHiRSkuoqO27QBBkwcZCwgAGIZkKSvJ08yIhBkcjCzS2Ka2ut3sGFaziwdsRMs-AKFt2f-03rJKcnNvdBHpJcRWCtx8xEMOrMMHBz5CQjFXoJHMUOEsQM7Cvx04kmZXJbWPLc2lZuWf-USG2t0LnQCxJXAC_I_aisoold3M33_u7c2lyqG4SVNwmdqJXYhLRhyN6pejrvHO5RIEly4ft6qiEIoV6OX4JbrFHM3wWmbbA54AS6lLnFcK1kaVcasL_MH1g3s4C_CX3hr1_j86sXqAYXFNfjRi27f2PMUZeCGdiIFMw8sCsdqWXq1_kyiXOYLDEOL5HAtH1JxUkT_ReIypgX8eioDUgZ5yiKsMay9foJyujJ6YGSIpawqHw0m3dA7UjQPxwmxInj3r6m2KSx4ysVvk55Vif9pBbOATpJVYnEajIuUIxP3NpUpPqku3gRSDkkVxmCbkjXaE2uLEIfaNmly3fRUFzJPdyohJzAA0xXwjah0IkTTpYIbfw5tkJYsUkijSU0MPMEREYcXQhSgDwmdxR3X1Ow7Iyykd7orAmjdqZy2TFzJLPKbW-aadvwcUv3wPZHw2GWgWQxrJMQs95-jb6wzbO-TOm82LReuwNHZfeRrBUtStd2RFVbiySYDi-wJn86Jyle2my2M3PAaPzSd5maHiErF5FqG0fIYGQD-SY01QaVZCmfw2drU2oUFJzb4Cf02a4QglfsVQx0BUHP-_m-RNw7C7wO-VqAIhVGCXkicD8TtS9a1DdCXmXSKv1FbGQYZzVnhSHBl78eYU3O27_fuiMyIfPxLEl3nyzC64tDvMszLdv2CBCHT_qnne1Bvcr5ON8BhmlpgzbMkZzN2Rw5bn7ShVCLN7CnjJZuj8_0z47nl1356UQ-TTmOxsPy4yoxi8UgHXpTXaGBTcckBhbpc1CHOcirelZA5ERaUCykbeDX6XDHBgd_mCJb8Z_zU1EmGunaL_L2JZYnU26A4sSOfViXIIcQ0IID2c68WqZhFQ4xcP8ZTOPHmI5m6OgRcl3DNMjZN4tLsSosm7OtWZI-gHW5L-u_gKO4tXdWeWmCVGgTJQbfeEIDKl7cOHFfHyWSkbnb5iXiGAGZbQ642pB-1G00]--></g></svg>