<?plantuml 1.2026.2?><svg xmlns="http://www.w3.org/2000/svg" xmlns:xlink="http://www.w3.org/1999/xlink" contentStyleType="text/css" data-diagram-type="SEQUENCE" height="933px" preserveAspectRatio="none" style="width:758px;height:933px;background:#FAFAFA;" version="1.1" viewBox="0 0 758 933" width="758px" zoomAndPan="magnify"><defs/><g><rect fill="#FAFAFA" height="933" style="stroke:none;stroke-width:1;" width="758" x="0" y="0"/><g class="participant-lifeline" data-entity-uid="part1" data-qualified-name="S" id="part1-lifeline"><g><title>Source</title><rect fill="#000000" fill-opacity="0.00000" height="859.0938" width="8" x="83.0923" y="37.4609"/><line style="stroke:#94A3B8;stroke-width:0.5;stroke-dasharray:5,5;" x1="87" x2="87" y1="37.4609" y2="896.5547"/></g></g><g class="participant-lifeline" data-entity-uid="part2" data-qualified-name="O" id="part2-lifeline"><g><title>Orchestrator</title><rect fill="#000000" fill-opacity="0.00000" height="859.0938" width="8" x="326.2388" y="37.4609"/><line style="stroke:#94A3B8;stroke-width:0.5;stroke-dasharray:5,5;" x1="330.0542" x2="330.0542" y1="37.4609" y2="896.5547"/></g></g><g class="participant-lifeline" data-entity-uid="part3" data-qualified-name="D" id="part3-lifeline"><g><title>Destination</title><rect fill="#000000" fill-opacity="0.00000" height="859.0938" width="8" x="569.3853" y="37.4609"/><line style="stroke:#94A3B8;stroke-width:0.5;stroke-dasharray:5,5;" x1="572.7161" x2="572.7161" y1="37.4609" y2="896.5547"/></g></g><g class="participant participant-head" data-entity-uid="part1" data-qualified-name="S" id="part1-head"><rect fill="#F1F5F9" height="31.4609" rx="2.5" ry="2.5" style="stroke:#475569;stroke-width:0.5;" width="68.1846" x="53" y="5"/><text fill="#000000" font-family="'Menlo'" font-size="15" font-weight="bold" lengthAdjust="spacing" textLength="54.1846" x="60" y="25.9233">Source</text></g><g class="participant participant-tail" data-entity-uid="part1" data-qualified-name="S" id="part1-tail"><rect fill="#F1F5F9" height="31.4609" rx="2.5" ry="2.5" style="stroke:#475569;stroke-width:0.5;" width="68.1846" x="53" y="895.5547"/><text fill="#000000" font-family="'Menlo'" font-size="15" font-weight="bold" lengthAdjust="spacing" textLength="54.1846" x="60" y="916.478">Source</text></g><g class="participant participant-head" data-entity-uid="part2" data-qualified-name="O" id="part2-head"><rect fill="#F1F5F9" height="31.4609" rx="2.5" ry="2.5" style="stroke:#475569;stroke-width:0.5;" width="122.3691" x="269.0542" y="5"/><text fill="#000000" font-family="'Menlo'" font-size="15" font-weight="bold" lengthAdjust="spacing" textLength="108.3691" x="276.0542" y="25.9233">Orchestrator</text></g><g class="participant participant-tail" data-entity-uid="part2" data-qualified-name="O" id="part2-tail"><rect fill="#F1F5F9" height="31.4609" rx="2.5" ry="2.5" style="stroke:#475569;stroke-width:0.5;" width="122.3691" x="269.0542" y="895.5547"/><text fill="#000000" font-family="'Menlo'" font-size="15" font-weight="bold" lengthAdjust="spacing" textLength="108.3691" x="276.0542" y="916.478">Orchestrator</text></g><g class="participant participant-head" data-entity-uid="part3" data-qualified-name="D" id="part3-head"><rect fill="#F1F5F9" height="31.4609" rx="2.5" ry="2.5" style="stroke:#475569;stroke-width:0.5;" width="113.3384" x="516.7161" y="5"/><text fill="#000000" font-family="'Menlo'" font-size="15" font-weight="bold" lengthAdjust="spacing" textLength="99.3384" x="523.7161" y="25.9233">Destination</text></g><g class="participant participant-tail" data-entity-uid="part3" data-qualified-name="D" id="part3-tail"><rect fill="#F1F5F9" height="31.4609" rx="2.5" ry="2.5" style="stroke:#475569;stroke-width:0.5;" width="113.3384" x="516.7161" y="895.5547"/><text fill="#000000" font-family="'Menlo'" font-size="15" font-weight="bold" lengthAdjust="spacing" textLength="99.3384" x="523.7161" y="916.478">Destination</text></g><rect fill="#F8FAFC" height="3" style="stroke:#F8FAFC;stroke-width:1;" width="751.7451" x="0" y="67.4453"/><line style="stroke:#CBD5E1;stroke-width:1;" x1="0" x2="751.7451" y1="67.4453" y2="67.4453"/><line style="stroke:#CBD5E1;stroke-width:1;" x1="0" x2="751.7451" y1="70.4453" y2="70.4453"/><rect fill="#F8FAFC" height="21.9688" style="stroke:#CBD5E1;stroke-width:2;" width="151.2676" x="300.2388" y="57.4609"/><text fill="#000000" font-family="'Menlo'" font-size="12" font-style="italic" lengthAdjust="spacing" textLength="130.043" x="306.2388" y="72.5996">Batch 1: customers</text><g class="message" data-entity-1="part1" data-entity-2="part2" id="msg1"><polygon fill="#2563EB" points="318.2388,106.5625,328.2388,110.5625,318.2388,114.5625,322.2388,110.5625" style="stroke:#2563EB;stroke-width:1;"/><line style="stroke:#2563EB;stroke-width:2;" x1="87.0923" x2="324.2388" y1="110.5625" y2="110.5625"/><text fill="#000000" font-family="'Menlo'" font-size="13" lengthAdjust="spacing" textLength="195.6665" x="94.0923" y="105.4966">RecordMessage (customers)</text></g><g class="message" data-entity-1="part1" data-entity-2="part2" id="msg2"><polygon fill="#2563EB" points="318.2388,135.6953,328.2388,139.6953,318.2388,143.6953,322.2388,139.6953" style="stroke:#2563EB;stroke-width:1;"/><line style="stroke:#2563EB;stroke-width:2;" x1="87.0923" x2="324.2388" y1="139.6953" y2="139.6953"/><text fill="#000000" font-family="'Menlo'" font-size="13" lengthAdjust="spacing" textLength="195.6665" x="94.0923" y="134.6294">RecordMessage (customers)</text></g><g class="message" data-entity-1="part2" data-entity-2="part3" id="msg3"><polygon fill="#2563EB" points="561.3853,164.8281,571.3853,168.8281,561.3853,172.8281,565.3853,168.8281" style="stroke:#2563EB;stroke-width:1;"/><line style="stroke:#2563EB;stroke-width:2;" x1="330.2388" x2="567.3853" y1="168.8281" y2="168.8281"/><text fill="#000000" font-family="'Menlo'" font-size="13" lengthAdjust="spacing" textLength="195.6665" x="337.2388" y="163.7622">RecordMessage (customers)</text></g><g class="message" data-entity-1="part2" data-entity-2="part3" id="msg4"><polygon fill="#2563EB" points="561.3853,193.9609,571.3853,197.9609,561.3853,201.9609,565.3853,197.9609" style="stroke:#2563EB;stroke-width:1;"/><line style="stroke:#2563EB;stroke-width:2;" x1="330.2388" x2="567.3853" y1="197.9609" y2="197.9609"/><text fill="#000000" font-family="'Menlo'" font-size="13" lengthAdjust="spacing" textLength="195.6665" x="337.2388" y="192.895">RecordMessage (customers)</text></g><g class="message" data-entity-1="part1" data-entity-2="part2" id="msg5"><polygon fill="#7C3AED" points="318.2388,223.0938,328.2388,227.0938,318.2388,231.0938,322.2388,227.0938" style="stroke:#7C3AED;stroke-width:1;"/><line style="stroke:#7C3AED;stroke-width:2;" x1="87.0923" x2="324.2388" y1="227.0938" y2="227.0938"/><text fill="#000000" font-family="'Menlo'" font-size="13" lengthAdjust="spacing" textLength="219.1465" x="94.0923" y="222.0278">State {customers, cursor:50}</text></g><g class="message" data-entity-1="part2" data-entity-2="part3" id="msg6"><polygon fill="#7C3AED" points="561.3853,252.2266,571.3853,256.2266,561.3853,260.2266,565.3853,256.2266" style="stroke:#7C3AED;stroke-width:1;"/><line style="stroke:#7C3AED;stroke-width:2;" x1="330.2388" x2="567.3853" y1="256.2266" y2="256.2266"/><text fill="#000000" font-family="'Menlo'" font-size="13" lengthAdjust="spacing" textLength="219.1465" x="337.2388" y="251.1606">State {customers, cursor:50}</text></g><g class="message" data-entity-1="part1" data-entity-2="part2" id="msg7"><polygon fill="#94A3B8" points="318.2388,281.3594,328.2388,285.3594,318.2388,289.3594,322.2388,285.3594" style="stroke:#94A3B8;stroke-width:1;"/><line style="stroke:#94A3B8;stroke-width:2;" x1="87.0923" x2="324.2388" y1="285.3594" y2="285.3594"/><text fill="#000000" font-family="'Menlo'" font-size="13" lengthAdjust="spacing" textLength="78.2666" x="94.0923" y="280.2935">LogMessage</text></g><path d="M335,298.3594 L335,323.3594 L457,323.3594 L457,308.3594 L447,298.3594 L335,298.3594" fill="#FEFFDD" style="stroke:#181818;stroke-width:0.5;"/><path d="M447,298.3594 L447,308.3594 L457,308.3594 L447,298.3594" fill="#FEFFDD" style="stroke:#181818;stroke-width:0.5;"/><text fill="#000000" font-family="'Menlo'" font-size="13" lengthAdjust="spacing" textLength="101.7466" x="341" y="315.4263">route to logs</text><g class="message" data-entity-1="part3" data-entity-2="part3" id="msg8"><line style="stroke:#16A34A;stroke-width:2;" x1="573.3853" x2="615.3853" y1="349.625" y2="349.625"/><line style="stroke:#16A34A;stroke-width:2;" x1="615.3853" x2="615.3853" y1="349.625" y2="362.625"/><line style="stroke:#16A34A;stroke-width:2;" x1="574.3853" x2="615.3853" y1="362.625" y2="362.625"/><polygon fill="#16A34A" points="584.3853,358.625,574.3853,362.625,584.3853,366.625,580.3853,362.625" style="stroke:#16A34A;stroke-width:1;"/><text fill="#000000" font-family="'Menlo'" font-size="13" lengthAdjust="spacing" textLength="164.3599" x="580.3853" y="344.5591">upsert + commit batch</text></g><g class="message" data-entity-1="part3" data-entity-2="part2" id="msg9"><polygon fill="#7C3AED" points="341.2388,387.7578,331.2388,391.7578,341.2388,395.7578,337.2388,391.7578" style="stroke:#7C3AED;stroke-width:1;"/><line style="stroke:#7C3AED;stroke-width:2;" x1="335.2388" x2="572.3853" y1="391.7578" y2="391.7578"/><text fill="#000000" font-family="'Menlo'" font-size="13" lengthAdjust="spacing" textLength="219.1465" x="347.2388" y="386.6919">State {customers, cursor:50}</text></g><path d="M335,404.7578 L335,429.7578 L496,429.7578 L496,414.7578 L486,404.7578 L335,404.7578" fill="#FEFFDD" style="stroke:#181818;stroke-width:0.5;"/><path d="M486,404.7578 L486,414.7578 L496,414.7578 L486,404.7578" fill="#FEFFDD" style="stroke:#181818;stroke-width:0.5;"/><text fill="#000000" font-family="'Menlo'" font-size="13" lengthAdjust="spacing" textLength="140.8799" x="341" y="421.8247">persist checkpoint</text><rect fill="#F8FAFC" height="3" style="stroke:#F8FAFC;stroke-width:1;" width="751.7451" x="0" y="454.875"/><line style="stroke:#CBD5E1;stroke-width:1;" x1="0" x2="751.7451" y1="454.875" y2="454.875"/><line style="stroke:#CBD5E1;stroke-width:1;" x1="0" x2="751.7451" y1="457.875" y2="457.875"/><rect fill="#F8FAFC" height="21.9688" style="stroke:#CBD5E1;stroke-width:2;" width="144.043" x="303.8511" y="444.8906"/><text fill="#000000" font-family="'Menlo'" font-size="12" font-style="italic" lengthAdjust="spacing" textLength="122.8184" x="309.8511" y="460.0293">Batch 2: invoices</text><g class="message" data-entity-1="part1" data-entity-2="part2" id="msg10"><polygon fill="#2563EB" points="318.2388,493.9922,328.2388,497.9922,318.2388,501.9922,322.2388,497.9922" style="stroke:#2563EB;stroke-width:1;"/><line style="stroke:#2563EB;stroke-width:2;" x1="87.0923" x2="324.2388" y1="497.9922" y2="497.9922"/><text fill="#000000" font-family="'Menlo'" font-size="13" lengthAdjust="spacing" textLength="187.8398" x="94.0923" y="492.9263">RecordMessage (invoices)</text></g><g class="message" data-entity-1="part2" data-entity-2="part3" id="msg11"><polygon fill="#2563EB" points="561.3853,523.125,571.3853,527.125,561.3853,531.125,565.3853,527.125" style="stroke:#2563EB;stroke-width:1;"/><line style="stroke:#2563EB;stroke-width:2;" x1="330.2388" x2="567.3853" y1="527.125" y2="527.125"/><text fill="#000000" font-family="'Menlo'" font-size="13" lengthAdjust="spacing" textLength="187.8398" x="337.2388" y="522.0591">RecordMessage (invoices)</text></g><g class="message" data-entity-1="part1" data-entity-2="part2" id="msg12"><polygon fill="#DC2626" points="318.2388,552.2578,328.2388,556.2578,318.2388,560.2578,322.2388,556.2578" style="stroke:#DC2626;stroke-width:1;"/><line style="stroke:#DC2626;stroke-width:2;" x1="87.0923" x2="324.2388" y1="556.2578" y2="556.2578"/><text fill="#000000" font-family="'Menlo'" font-size="13" lengthAdjust="spacing" textLength="93.9199" x="94.0923" y="551.1919">ErrorMessage</text></g><path d="M335,569.2578 L335,609.2578 L536,609.2578 L536,579.2578 L526,569.2578 L335,569.2578" fill="#FEFFDD" style="stroke:#181818;stroke-width:0.5;"/><path d="M526,569.2578 L526,579.2578 L536,579.2578 L526,569.2578" fill="#FEFFDD" style="stroke:#181818;stroke-width:0.5;"/><text fill="#000000" font-family="'Menlo'" font-size="13" lengthAdjust="spacing" textLength="93.9199" x="341" y="586.3247">handle error</text><text fill="#000000" font-family="'Menlo'" font-size="13" lengthAdjust="spacing" textLength="180.0132" x="341" y="601.4575">(retry / abort / alert)</text><g class="message" data-entity-1="part1" data-entity-2="part2" id="msg13"><polygon fill="#7C3AED" points="318.2388,631.6563,328.2388,635.6563,318.2388,639.6563,322.2388,635.6563" style="stroke:#7C3AED;stroke-width:1;"/><line style="stroke:#7C3AED;stroke-width:2;" x1="87.0923" x2="324.2388" y1="635.6563" y2="635.6563"/><text fill="#000000" font-family="'Menlo'" font-size="13" lengthAdjust="spacing" textLength="211.3198" x="94.0923" y="630.5903">State {invoices, cursor:99}</text></g><g class="message" data-entity-1="part2" data-entity-2="part3" id="msg14"><polygon fill="#7C3AED" points="561.3853,660.7891,571.3853,664.7891,561.3853,668.7891,565.3853,664.7891" style="stroke:#7C3AED;stroke-width:1;"/><line style="stroke:#7C3AED;stroke-width:2;" x1="330.2388" x2="567.3853" y1="664.7891" y2="664.7891"/><text fill="#000000" font-family="'Menlo'" font-size="13" lengthAdjust="spacing" textLength="211.3198" x="337.2388" y="659.7231">State {invoices, cursor:99}</text></g><g class="message" data-entity-1="part3" data-entity-2="part3" id="msg15"><line style="stroke:#16A34A;stroke-width:2;" x1="573.3853" x2="615.3853" y1="693.9219" y2="693.9219"/><line style="stroke:#16A34A;stroke-width:2;" x1="615.3853" x2="615.3853" y1="693.9219" y2="706.9219"/><line style="stroke:#16A34A;stroke-width:2;" x1="574.3853" x2="615.3853" y1="706.9219" y2="706.9219"/><polygon fill="#16A34A" points="584.3853,702.9219,574.3853,706.9219,584.3853,710.9219,580.3853,706.9219" style="stroke:#16A34A;stroke-width:1;"/><text fill="#000000" font-family="'Menlo'" font-size="13" lengthAdjust="spacing" textLength="164.3599" x="580.3853" y="688.856">upsert + commit batch</text></g><g class="message" data-entity-1="part3" data-entity-2="part2" id="msg16"><polygon fill="#7C3AED" points="341.2388,732.0547,331.2388,736.0547,341.2388,740.0547,337.2388,736.0547" style="stroke:#7C3AED;stroke-width:1;"/><line style="stroke:#7C3AED;stroke-width:2;" x1="335.2388" x2="572.3853" y1="736.0547" y2="736.0547"/><text fill="#000000" font-family="'Menlo'" font-size="13" lengthAdjust="spacing" textLength="211.3198" x="347.2388" y="730.9888">State {invoices, cursor:99}</text></g><path d="M335,749.0547 L335,774.0547 L496,774.0547 L496,759.0547 L486,749.0547 L335,749.0547" fill="#FEFFDD" style="stroke:#181818;stroke-width:0.5;"/><path d="M486,749.0547 L486,759.0547 L496,759.0547 L486,749.0547" fill="#FEFFDD" style="stroke:#181818;stroke-width:0.5;"/><text fill="#000000" font-family="'Menlo'" font-size="13" lengthAdjust="spacing" textLength="140.8799" x="341" y="766.1216">persist checkpoint</text><rect fill="#F8FAFC" height="3" style="stroke:#F8FAFC;stroke-width:1;" width="751.7451" x="0" y="799.1719"/><line style="stroke:#CBD5E1;stroke-width:1;" x1="0" x2="751.7451" y1="799.1719" y2="799.1719"/><line style="stroke:#CBD5E1;stroke-width:1;" x1="0" x2="751.7451" y1="802.1719" y2="802.1719"/><rect fill="#F8FAFC" height="21.9688" style="stroke:#CBD5E1;stroke-width:2;" width="64.5723" x="343.5864" y="789.1875"/><text fill="#000000" font-family="'Menlo'" font-size="12" font-style="italic" lengthAdjust="spacing" textLength="43.3477" x="349.5864" y="804.3262">Resume</text><path d="M5,826.1563 L5,881.1563 L657,881.1563 L657,836.1563 L647,826.1563 L5,826.1563" fill="#F0FDF4" style="stroke:#181818;stroke-width:0.5;"/><path d="M647,826.1563 L647,836.1563 L657,836.1563 L647,826.1563" fill="#F0FDF4" style="stroke:#181818;stroke-width:0.5;"/><text fill="#000000" font-family="'Menlo'" font-size="13" lengthAdjust="spacing" textLength="414.813" x="119.1207" y="843.2231">On next run, orchestrator passes last persisted state</text><text fill="#000000" font-family="'Menlo'" font-size="13" lengthAdjust="spacing" textLength="406.9863" x="119.1207" y="858.356">back to source.read(streams, state) &#8212; source resumes</text><text fill="#000000" font-family="'Menlo'" font-size="13" lengthAdjust="spacing" textLength="375.6797" x="119.1207" y="873.4888">from {customers: cursor:50, invoices: cursor:99}</text><?plantuml-src hLNBRjim4BppAnRnnK7TrYyviG4NQAhubDH1t5lR0qskRC8IgP9KcgG8q8_e5_PBkdh4bcldXLO-2DWPxWmvAzgjb4wvvGb8Z7WM-udH_YDF40xEKSVcWBbzZ9cwHUZqQk2SYzN2capB3oOs5XeHpt-iHd7uBKCj47umeEUzjURxfwKIAutEGRSeNd3hbL0fr_w2Iwdq0lhj0Zanr_ULJbavKn6UAOqdnagqbUomptlpusty8Mj_2UxoEb4G3NTeTRd-KH0CTYYR8mhsGlucHfYRM9OUGdMbgEMk_Z7v55kKkhQOom0xTNYZszqf5vhAyrW9TiTOkh44CvDPYeKxc6tLfrOiqNdBFSaHEjr2GuAKvbuPdOCXO-Cnd70lbj0PWSYSDmbQ1-CnOpDu_RdH3GOzd7zz1rCOmIKAsiiv9SyN2Cqr_V15tEaMD_nltDB4aUXnb9M9cUUUHdTDQj4MhJDs5BJlojvhUlWKlMnVZchL_imiAYDC6rffrMBfmKG4DYQdaqcODwNX8CWRYCt2CHRcNJe3tklpIZLB7LeFhq2O956UlagAe-GzVpCFwwT4LSu3ZOLOfKPfNmkzEmAbhumI-CpCxzdFY6P3BTjAqHrq1rNRKxf8xDE7j-HQqYU0EVkBRbhqzWRU0fyREZ5wntHoZoL_xs5zLiFX8y7lPVzxOdlRlZYmItGPNV5vIiLQSuKMPYqor8ZQaOpwT7jCDMYyzc0ptG9JlmbIxXnb77DgN0cW19SRf7Nv7q4-egwuLDvOvB99Av4dPBeW7SBldxyg76nXnT72o9gaDfAZpKYsreCrgcyRjOJSFli3?></g></svg>