<svg xmlns="http://www.w3.org/2000/svg" xmlns:xlink="http://www.w3.org/1999/xlink" contentStyleType="text/css" height="995px" preserveAspectRatio="none" style="width:622px;height:995px;background:#FAFAFA;" version="1.1" viewBox="0 0 622 995" width="622px" zoomAndPan="magnify"><title>Parallel Pagination via Binary Subdivision</title><defs/><g><rect fill="#FAFAFA" height="995" style="stroke:none;stroke-width:1;" width="622" x="0" y="0"/><text fill="#000000" font-family="Menlo" font-size="14" font-weight="bold" lengthAdjust="spacing" textLength="330.2852" x="141.9194" y="27.9951">Parallel Pagination via Binary Subdivision</text><line style="stroke:#94A3B8;stroke-width:0.5;stroke-dasharray:5.0,5.0;" x1="202" x2="202" y1="74.7578" y2="958.8828"/><line style="stroke:#94A3B8;stroke-width:0.5;stroke-dasharray:5.0,5.0;" x1="411.7334" x2="411.7334" y1="74.7578" y2="958.8828"/><rect fill="#F1F5F9" height="31.4609" rx="2.5" ry="2.5" style="stroke:#475569;stroke-width:0.5;" width="71.6563" x="167" y="42.2969"/><text fill="#000000" font-family="Menlo" font-size="15" font-weight="bold" lengthAdjust="spacing" textLength="57.6563" x="174" y="63.2202">Engine</text><rect fill="#F1F5F9" height="31.4609" rx="2.5" ry="2.5" style="stroke:#475569;stroke-width:0.5;" width="71.6563" x="167" y="957.8828"/><text fill="#000000" font-family="Menlo" font-size="15" font-weight="bold" lengthAdjust="spacing" textLength="57.6563" x="174" y="978.8062">Engine</text><rect fill="#F1F5F9" height="31.4609" rx="2.5" ry="2.5" style="stroke:#475569;stroke-width:0.5;" width="98.8291" x="362.7334" y="42.2969"/><text fill="#000000" font-family="Menlo" font-size="15" font-weight="bold" lengthAdjust="spacing" textLength="84.8291" x="369.7334" y="63.2202">Stripe API</text><rect fill="#F1F5F9" height="31.4609" rx="2.5" ry="2.5" style="stroke:#475569;stroke-width:0.5;" width="98.8291" x="362.7334" y="957.8828"/><text fill="#000000" font-family="Menlo" font-size="15" font-weight="bold" lengthAdjust="spacing" textLength="84.8291" x="369.7334" y="978.8062">Stripe API</text><rect fill="#F8FAFC" height="3" style="stroke:#F8FAFC;stroke-width:1;" width="615.124" x="0" y="104.7422"/><line style="stroke:#CBD5E1;stroke-width:1;" x1="0" x2="615.124" y1="104.7422" y2="104.7422"/><line style="stroke:#CBD5E1;stroke-width:1;" x1="0" x2="615.124" y1="107.7422" y2="107.7422"/><rect fill="#F8FAFC" height="21.9688" style="stroke:#CBD5E1;stroke-width:2;" width="181.6426" x="216.7407" y="94.7578"/><text fill="#000000" font-family="Menlo" font-size="12" font-style="italic" lengthAdjust="spacing" textLength="163.8281" x="222.7407" y="109.8965">Round 0 &#8212; Fetch first page</text><polygon fill="#475569" points="400.1479,158.9922,410.1479,162.9922,400.1479,166.9922,404.1479,162.9922" style="stroke:#475569;stroke-width:1;"/><line style="stroke:#475569;stroke-width:2;" x1="202.8281" x2="406.1479" y1="162.9922" y2="162.9922"/><text fill="#000000" font-family="Menlo" font-size="13" lengthAdjust="spacing" textLength="131.1997" x="209.8281" y="142.7935">fetch [Jan 1 .. Apr 1)</text><text fill="#000000" font-family="Menlo" font-size="13" lengthAdjust="spacing" textLength="73.0171" x="209.8281" y="157.9263">cursor: null</text><polygon fill="#2563EB" points="213.8281,218.3906,203.8281,222.3906,213.8281,226.3906,209.8281,222.3906" style="stroke:#2563EB;stroke-width:1;"/><line style="stroke:#2563EB;stroke-width:2;" x1="207.8281" x2="411.1479" y1="222.3906" y2="222.3906"/><text fill="#000000" font-family="Menlo" font-size="13" lengthAdjust="spacing" textLength="168.3081" x="219.8281" y="187.0591">100 records (newest first)</text><text fill="#000000" font-family="Menlo" font-size="13" lengthAdjust="spacing" textLength="185.3198" x="219.8281" y="202.1919">oldest = Mar 15 (split_point)</text><text fill="#000000" font-family="Menlo" font-size="13" lengthAdjust="spacing" textLength="99.9121" x="219.8281" y="217.3247">cursor: cur_abc</text><path d="M207,235.3906 L207,290.3906 L418,290.3906 L418,245.3906 L408,235.3906 L207,235.3906 " fill="#FEFFDD" style="stroke:#181818;stroke-width:0.5;"/><path d="M408,235.3906 L408,245.3906 L418,245.3906 L408,235.3906 " fill="#FEFFDD" style="stroke:#181818;stroke-width:0.5;"/><text fill="#000000" font-family="Menlo" font-size="13" lengthAdjust="spacing" textLength="131.3584" x="213" y="252.4575">split_point = Mar 15</text><text fill="#000000" font-family="Menlo" font-size="13" lengthAdjust="spacing" textLength="190.8931" x="213" y="267.5903">remainder = [Jan 1 .. Mar 15)</text><text fill="#000000" font-family="Menlo" font-size="13" lengthAdjust="spacing" textLength="117.1016" x="213" y="282.7231">midpoint  = Feb 7</text><rect fill="#F8FAFC" height="3" style="stroke:#F8FAFC;stroke-width:1;" width="615.124" x="0" y="315.7734"/><line style="stroke:#CBD5E1;stroke-width:1;" x1="0" x2="615.124" y1="315.7734" y2="315.7734"/><line style="stroke:#CBD5E1;stroke-width:1;" x1="0" x2="615.124" y1="318.7734" y2="318.7734"/><rect fill="#F8FAFC" height="21.9688" style="stroke:#CBD5E1;stroke-width:2;" width="259.2852" x="177.9194" y="305.7891"/><text fill="#000000" font-family="Menlo" font-size="12" font-style="italic" lengthAdjust="spacing" textLength="241.4707" x="183.9194" y="320.9277">Round 1 &#8212; Split remainder in half, fetch</text><polygon fill="#2563EB" points="400.1479,370.0234,410.1479,374.0234,400.1479,378.0234,404.1479,374.0234" style="stroke:#2563EB;stroke-width:1;"/><line style="stroke:#2563EB;stroke-width:2;" x1="202.8281" x2="406.1479" y1="374.0234" y2="374.0234"/><text fill="#000000" font-family="Menlo" font-size="13" lengthAdjust="spacing" textLength="132.4375" x="209.8281" y="353.8247">fetch [Jan 1 .. Feb 7)</text><text fill="#000000" font-family="Menlo" font-size="13" lengthAdjust="spacing" textLength="73.0171" x="209.8281" y="368.9575">cursor: null</text><polygon fill="#2563EB" points="400.1479,414.2891,410.1479,418.2891,400.1479,422.2891,404.1479,418.2891" style="stroke:#2563EB;stroke-width:1;"/><line style="stroke:#2563EB;stroke-width:2;" x1="202.8281" x2="406.1479" y1="418.2891" y2="418.2891"/><text fill="#000000" font-family="Menlo" font-size="13" lengthAdjust="spacing" textLength="145.1963" x="209.8281" y="398.0903">fetch [Feb 7 .. Mar 15)</text><text fill="#000000" font-family="Menlo" font-size="13" lengthAdjust="spacing" textLength="73.0171" x="209.8281" y="413.2231">cursor: null</text><polygon fill="#7C3AED" points="400.1479,458.5547,410.1479,462.5547,400.1479,466.5547,404.1479,462.5547" style="stroke:#7C3AED;stroke-width:1;"/><line style="stroke:#7C3AED;stroke-width:2;" x1="202.8281" x2="406.1479" y1="462.5547" y2="462.5547"/><text fill="#000000" font-family="Menlo" font-size="13" lengthAdjust="spacing" textLength="154.2671" x="209.8281" y="442.356">fetch [Mar 15 .. Mar 16)</text><text fill="#000000" font-family="Menlo" font-size="13" lengthAdjust="spacing" textLength="176.1284" x="209.8281" y="457.4888">cursor: cur_abc (boundary)</text><path d="M207,475.5547 L207,530.5547 L508,530.5547 L508,485.5547 L498,475.5547 L207,475.5547 " fill="#DCFCE7" style="stroke:#181818;stroke-width:0.5;"/><path d="M498,475.5547 L498,485.5547 L508,485.5547 L498,475.5547 " fill="#DCFCE7" style="stroke:#181818;stroke-width:0.5;"/><text fill="#000000" font-family="Menlo" font-size="13" lengthAdjust="spacing" textLength="198.8213" x="213" y="492.6216">[Jan 1 .. Feb 7)   &#8594; no cursor &#8594;</text><text fill="#000000" font-family="Menlo" font-size="13" font-weight="bold" lengthAdjust="spacing" textLength="36.3086" x="415.9536" y="492.6216">done</text><text fill="#000000" font-family="Menlo" font-size="13" lengthAdjust="spacing" textLength="199.5195" x="213" y="507.7544">[Feb 7 .. Mar 15)  &#8594; cursor    &#8594;</text><text fill="#000000" font-family="Menlo" font-size="13" font-weight="bold" lengthAdjust="spacing" textLength="77.2573" x="416.6519" y="507.7544">split again</text><text fill="#000000" font-family="Menlo" font-size="13" lengthAdjust="spacing" textLength="212.3862" x="213" y="522.8872">[Mar 15 .. Mar 16) &#8594; no cursor &#8594;</text><text fill="#000000" font-family="Menlo" font-size="13" font-weight="bold" lengthAdjust="spacing" textLength="36.3086" x="429.5186" y="522.8872">done</text><rect fill="#F8FAFC" height="3" style="stroke:#F8FAFC;stroke-width:1;" width="615.124" x="0" y="555.9375"/><line style="stroke:#CBD5E1;stroke-width:1;" x1="0" x2="615.124" y1="555.9375" y2="555.9375"/><line style="stroke:#CBD5E1;stroke-width:1;" x1="0" x2="615.124" y1="558.9375" y2="558.9375"/><rect fill="#F8FAFC" height="21.9688" style="stroke:#CBD5E1;stroke-width:2;" width="217.4727" x="198.8257" y="545.9531"/><text fill="#000000" font-family="Menlo" font-size="12" font-style="italic" lengthAdjust="spacing" textLength="199.6582" x="204.8257" y="561.0918">Round 2 &#8212; Split dense half again</text><path d="M207,582.9219 L207,637.9219 L421,637.9219 L421,592.9219 L411,582.9219 L207,582.9219 " fill="#FEFFDD" style="stroke:#181818;stroke-width:0.5;"/><path d="M411,582.9219 L411,592.9219 L421,592.9219 L411,582.9219 " fill="#FEFFDD" style="stroke:#181818;stroke-width:0.5;"/><text fill="#000000" font-family="Menlo" font-size="13" lengthAdjust="spacing" textLength="130.5586" x="213" y="599.9888">split_point = Feb 20</text><text fill="#000000" font-family="Menlo" font-size="13" lengthAdjust="spacing" textLength="193.7813" x="213" y="615.1216">remainder = [Feb 7 .. Feb 20)</text><text fill="#000000" font-family="Menlo" font-size="13" lengthAdjust="spacing" textLength="125.3726" x="213" y="630.2544">midpoint  = Feb 13</text><polygon fill="#2563EB" points="400.1479,675.5859,410.1479,679.5859,400.1479,683.5859,404.1479,679.5859" style="stroke:#2563EB;stroke-width:1;"/><line style="stroke:#2563EB;stroke-width:2;" x1="202.8281" x2="406.1479" y1="679.5859" y2="679.5859"/><text fill="#000000" font-family="Menlo" font-size="13" lengthAdjust="spacing" textLength="144.3965" x="209.8281" y="659.3872">fetch [Feb 7 .. Feb 13)</text><text fill="#000000" font-family="Menlo" font-size="13" lengthAdjust="spacing" textLength="73.0171" x="209.8281" y="674.52">cursor: null</text><polygon fill="#2563EB" points="400.1479,719.8516,410.1479,723.8516,400.1479,727.8516,404.1479,723.8516" style="stroke:#2563EB;stroke-width:1;"/><line style="stroke:#2563EB;stroke-width:2;" x1="202.8281" x2="406.1479" y1="723.8516" y2="723.8516"/><text fill="#000000" font-family="Menlo" font-size="13" lengthAdjust="spacing" textLength="152.6675" x="209.8281" y="703.6528">fetch [Feb 13 .. Feb 20)</text><text fill="#000000" font-family="Menlo" font-size="13" lengthAdjust="spacing" textLength="73.0171" x="209.8281" y="718.7856">cursor: null</text><polygon fill="#7C3AED" points="400.1479,764.1172,410.1479,768.1172,400.1479,772.1172,404.1479,768.1172" style="stroke:#7C3AED;stroke-width:1;"/><line style="stroke:#7C3AED;stroke-width:2;" x1="202.8281" x2="406.1479" y1="768.1172" y2="768.1172"/><text fill="#000000" font-family="Menlo" font-size="13" lengthAdjust="spacing" textLength="152.6675" x="209.8281" y="747.9185">fetch [Feb 20 .. Feb 21)</text><text fill="#000000" font-family="Menlo" font-size="13" lengthAdjust="spacing" textLength="173.5894" x="209.8281" y="763.0513">cursor: cur_def (boundary)</text><path d="M207,781.1172 L207,806.1172 L418,806.1172 L418,791.1172 L408,781.1172 L207,781.1172 " fill="#DCFCE7" style="stroke:#181818;stroke-width:0.5;"/><path d="M408,781.1172 L408,791.1172 L418,791.1172 L408,781.1172 " fill="#DCFCE7" style="stroke:#181818;stroke-width:0.5;"/><text fill="#000000" font-family="Menlo" font-size="13" lengthAdjust="spacing" textLength="150.2363" x="213" y="798.1841">All three &#8594; no cursor &#8594;</text><text fill="#000000" font-family="Menlo" font-size="13" font-weight="bold" lengthAdjust="spacing" textLength="36.3086" x="367.3687" y="798.1841">done</text><rect fill="#F8FAFC" height="3" style="stroke:#F8FAFC;stroke-width:1;" width="615.124" x="0" y="831.2344"/><line style="stroke:#CBD5E1;stroke-width:1;" x1="0" x2="615.124" y1="831.2344" y2="831.2344"/><line style="stroke:#CBD5E1;stroke-width:1;" x1="0" x2="615.124" y1="834.2344" y2="834.2344"/><rect fill="#F8FAFC" height="21.9688" style="stroke:#CBD5E1;stroke-width:2;" width="44.4746" x="285.3247" y="821.25"/><text fill="#000000" font-family="Menlo" font-size="12" font-style="italic" lengthAdjust="spacing" textLength="26.6602" x="291.3247" y="836.3887">Rule</text><path d="M5,858.2188 L5,943.2188 L610,943.2188 L610,868.2188 L600,858.2188 L5,858.2188 " fill="#F8FAFC" style="stroke:#181818;stroke-width:0.5;"/><path d="M600,858.2188 L600,868.2188 L610,868.2188 L600,858.2188 " fill="#F8FAFC" style="stroke:#181818;stroke-width:0.5;"/><text fill="#000000" font-family="Menlo" font-size="13" font-weight="bold" lengthAdjust="spacing" textLength="158.7231" x="11" y="875.2856">Per range, per round:</text><text fill="#000000" font-family="Menlo" font-size="13" lengthAdjust="spacing" textLength="117.4189" x="11" y="890.4185">1. Fetch one page</text><text fill="#000000" font-family="Menlo" font-size="13" lengthAdjust="spacing" textLength="154.8193" x="11" y="905.5513">2. No cursor returned &#8594;</text><text fill="#000000" font-family="Menlo" font-size="13" font-weight="bold" lengthAdjust="spacing" textLength="33.9536" x="169.9517" y="905.5513">drop</text><text fill="#000000" font-family="Menlo" font-size="13" lengthAdjust="spacing" textLength="101.7402" x="208.0376" y="905.5513">(range drained)</text><text fill="#000000" font-family="Menlo" font-size="13" lengthAdjust="spacing" textLength="250.707" x="11" y="920.6841">3. Cursor returned, split_point &gt; gte &#8594;</text><text fill="#000000" font-family="Menlo" font-size="13" font-weight="bold" lengthAdjust="spacing" textLength="163.3887" x="265.8394" y="920.6841">split remainder in half</text><text fill="#000000" font-family="Menlo" font-size="13" lengthAdjust="spacing" textLength="112.874" x="433.3604" y="920.6841">+ keep boundary</text><text fill="#000000" font-family="Menlo" font-size="13" lengthAdjust="spacing" textLength="366.2407" x="11" y="935.8169">4. Cursor returned, split_point = gte (1-second range) &#8594;</text><text fill="#000000" font-family="Menlo" font-size="13" font-weight="bold" lengthAdjust="spacing" textLength="213.751" x="381.373" y="935.8169">keep paginating sequentially</text><!--SRC=[bLR1Rjf04BtxAqR91Lo2C8IGH28IIK1gbKIez9PMqTeUcnNBhhjUagPLfPxw0LM_C5_IyTg0mJIbS03Fp9lt_6POOxWH26EccH0ew4lC9JDSINZa32xfGZ_3PE67_96d57QSTCPbGlLp235Y2s56IfexDaSuk4KfrC7kYWd_Yk1rIacV1RDOguKChvHG6WuZbhtB32b-Ng0C4BuvGA-1rkhfmvG7Cubf2cqR9Es61pnXqenP678PGwTbCvVgopBYvP4R7k4DbtYfT8Ywe3qxPXt_T3F_DsbRXDKwB-f6PvMoCjrnhzizgPIiBUhkJ9bd6fElH9XhkAPnKCig_odf33PAojo17tRHAwVNlErAs79ommGFdE-EawmbmS5GqgBW0R0KXfkPYT4yGHYCtzeiVJfElm_lCvNGWfSVls649fX2n7Lg864nGh_lE4CukY_C-NIHmU0S8bju_uv9yA3PX46YmQj_bC52fqgVWrm8uMIb16rtJphe4tH8GA_L0eq1tNiADObFI4oMZy1aOdRPXrj6tRfGInF1pKEYk3IbtlJvmFp0SQGo29h7KmCgekw7e-5eT7rDTfM0gtOKrZXdN9AB55nhpzDroizvc6CeFq8VUWwIDHbDoIdFEZN964eDkOGf4r6ZS6Rbs-hcT_jcMRPzUmLewqkYTo5xGOTXk8qiF5r2Jwg6GitFRf3EbVeERyCW2h179csBfzry-VcBN8AydxrotL19TDsiVbjpNbyK5sZNjIC35fEVEQmY-3MQ7NDgb-OKeapH3YXdiFFPTtqo_UtMzlgixYfFxreVEbJNklOPQWxwptNmEYKL- -z33bX1lQrze0V4dlim40BCL2FkFv-5mFK4r2CPEcnOTUjZqdN75DPCnjY09FkQQJctg-4rYuEAUjjZYcBj9jojg3MQXPOOBZLebRWkr6mt23KD4SDiO9qcN6qY6Xkplu3OuCP-LdxmrFSDp10JM9f5VO__qRTl-zQyevHEGdB62giNHBPPKZpkwGcPFseDf_y1psKd_m00]--></g></svg>